<svg id="iraq-map" class="iraq-svg" viewBox="50 20 900 860" xmlns="http://www.w3.org/2000/svg">
    <defs>
        <filter id="glow">
            <feGaussianBlur stdDeviation="3" result="cb" />
            <feMerge>
                <feMergeNode in="cb" />
                <feMergeNode in="SourceGraphic" />
            </feMerge>
        </filter>
    </defs>

    <!-- محافظة دهوك (Id: 30) -->
    <path class="prov" id="gov-30" data-id="30" data-name="دهوك" d="M 536.7 52.6 l -0.4 1.6 l 0.3 0.6 l 0.3 0.1 l 0.2 0.2 l 0.2 0.5 l 0.1 0.2 l 0.1 0.1 l 0.2 0.1 l 0.2 0.1 l 0.2 0.2 l 0.3 0.1 l 0.1 0.3 l 0 0.4 l -0.8 1.7 l -0.3 0.7 l 0 0.5 l 0 0.4 l 0.1 0.7 l 0.1 0.7 l 0.2 0.3 l 0.2 0.2 l 0.4 0.1 l 0.5 0 l 0.2 0.1 l 0.2 0.2 l 0.2 1.3 l 0 0.4 l -0.1 0.3 l -1 0.5 l -1 0.8 l -0.7 0.7 l -1.1 1.4 l -0.3 0.7 l 0 0.4 l 0.4 0.8 l -0.2 0.4 l -0.5 0.3 l -1.1 0.5 l -1.9 1 l -0.5 0.5 l -1.4 1.9 l -0.4 0.6 l -0.5 0.5 l -0.7 0.5 l -1.7 0.8 l -0.7 0.3 l -0.4 0.2 l 0.1 0.4 l 0.2 0.2 l 0 0.3 l -0.4 0.2 l -3.4 1.4 l -1.6 0.9 l -0.6 0.5 l -0.3 0.7 l -0.4 1.2 l -0.3 0.6 l -0.5 0.4 l -0.7 0.2 l -1.3 0.6 l -1.8 2.1 l -2.8 -0.7 l -2.6 -1.1 l -6.4 -1.1 l -1 -0.3 l -1.7 -0.9 l -0.4 -0.1 l -0.4 -0.1 l -0.3 0.1 l -0.3 0.3 l -0.4 0.4 l -0.3 0.4 l -0.4 0.9 l -0.1 0.4 l 0 0.4 l -0.1 0.9 l -0.3 0.9 l -0.3 0.9 l 0 0.4 l 0 0.4 l 0 0.4 l 0.3 0.5 l 0 0.3 l 0.2 0.3 l 0.2 0.4 l 0.9 0.7 l 0.5 0.2 l 0.5 0.2 l 1.3 0 l 0.7 0.2 l 0.8 0.4 l 1.5 0.5 l 0.6 0.1 l 0.5 0.2 l 0.3 0.4 l 0.2 0.5 l 0.1 0.6 l 0.1 0.5 l 0 0.6 l -0.2 0.5 l -0.8 1.6 l -0.4 0.5 l -0.4 0.3 l -0.5 0.2 l -0.1 0.2 l 0.2 0.7 l 0.1 0.4 l 0 0.3 l 0 0.3 l 0 0.3 l 0.1 0.6 l 0 0.3 l 0.1 0.4 l 0 0.6 l -0.1 0.7 l -0.4 1.3 l -0.3 0.3 l -0.4 0 l -0.3 -0.2 l -1.5 -0.5 l -0.9 0.2 l -0.6 0.3 l -0.3 0.4 l -0.2 0.6 l 0 0.7 l -0.1 0.5 l -0.2 0.5 l -0.7 0.1 l -1.3 -0.3 l -13.2 -3.6 l -2.9 -1.4 l -1.6 -1.5 l -2.8 -2 l -1.2 -1.3 l -1.5 -1.2 l -1.3 -0.7 l -3.5 -0.4 l -1.5 0.5 l -1.3 1 l -0.6 1.1 l -2.8 3.4 l -2.7 4.5 l -0.8 2.6 l -0.9 2 l -0.4 1.8 l -1.3 1 l -3.1 1.5 l -3.7 0.4 l -11.9 1.6 l -7.5 4.2 l -1.1 -0.3 l -1.3 0.1 l -1.1 0.2 l -0.9 0.6 l -0.7 1.4 l -0.8 -1.8 l -0.5 -0.7 l -0.6 -0.6 l -1.4 -0.7 l -0.7 0 l -3.2 1.6 l -1 0 l -0.6 -0.9 l 0.2 -0.9 l 0.9 -0.6 l 2 -0.8 l -0.8 -0.9 l -0.7 -0.2 l -0.7 -0.1 l -0.9 -0.4 l -1.6 -1.5 l -2.8 -3.1 l -0.8 -0.6 l -1.1 -0.2 l -0.8 0.2 l -0.5 0.5 l -0.4 0.5 l -0.5 0.2 l -3.8 0 l -1.5 -0.8 l -1.2 -3.5 l -1.6 -1.1 l -2.8 -1.5 l -1.8 0.7 l -1 -0.9 l 0.4 -1.2 l 2.4 -0.2 l -1 -1.9 l -0.8 -0.8 l -0.2 -1.1 l 0.7 -2.5 l -1.5 -0.3 l -0.1 -1.9 l 0.4 -2.3 l 0 -1.7 l -1.8 2 l -1.6 0.1 l -1.6 -1.2 l -3.5 -3.5 l -1.5 -2.4 l -1.3 -2.7 l -0.6 -2.5 l 0 -1.7 l -0.6 -1.3 l -0.6 -1.1 l -0.6 -1.4 l 4 -0.5 l 5.3 -1.7 l 7.8 -1.3 l 1.5 -0.7 l 0.3 -0.6 l 1.1 -3.1 l 11.5 -16.8 l 0.3 -0.9 l 0.2 -0.8 l 0.1 -0.8 l 0.6 -0.9 l 0.6 -0.4 l 4.5 -1.9 l 0.8 0 l 1.1 0.1 l 0.8 0.6 l 0.4 2 l 0.8 0.6 l 7.6 2.5 l 3.6 0.5 l 3.9 -1.3 l 2.4 -1.8 l 3.5 -1.5 l 3.6 -1 l 2.9 -0.2 l 1.5 0.4 l 12 6.5 l 0.7 0.2 l 0.7 0.1 l 0.8 -0.1 l 0.9 -0.9 l 0.8 -0.4 l 1.7 -0.2 l 1.1 0.2 l 2.4 1.9 l 1.2 0.9 l 3.8 1.9 l 4.2 3.5 l 1.5 0.6 l 1.2 -0.1 l 2.2 -0.9 l 1.2 -0.2 l 1.1 0.2 l 0.8 0.4 l 1.6 1.3 l 2.4 0.9 l 2.2 0.3 l 9.3 -0.6 l 2.4 0.2 l 2.2 0.5 l 0.9 0.7 l 1.9 1.9 l 0.7 0.4 l 1.2 -0.3 l 1.6 -1.7 l 4.9 -0.9 l 2.8 -3.2 l 2.7 -3.9 l 3.3 -2.9 l 4.2 -0.7 l 3 0.6 Z" />
    <text x="430.6" y="80.3" class="lbl">دهوك</text>
    <text x="430.6" y="100.3" class="cnt" id="cnt-30">0</text>

    <!-- محافظة نينوى (Id: 17) -->
    <path class="prov" id="gov-17" data-id="17" data-name="نينوى" d="M 382.2 81.4 l 0.6 2.5 l 1.3 2.7 l 1.5 2.4 l 3.5 3.5 l 1.6 1.2 l 1.6 -0.1 l 1.8 -2 l 0 1.7 l -0.4 2.3 l 0.1 1.9 l 1.5 0.3 l -0.7 2.5 l 0.2 1.1 l 0.8 0.8 l 1 1.9 l -2.4 0.2 l -0.4 1.2 l 1 0.9 l 1.8 -0.7 l 2.8 1.5 l 1.6 1.1 l 1.2 3.5 l 1.5 0.8 l 3.8 0 l 0.5 -0.2 l 0.4 -0.5 l 0.5 -0.5 l 0.8 -0.2 l 1.1 0.2 l 0.8 0.6 l 2.8 3.1 l 1.6 1.5 l 0.9 0.4 l 0.7 0.1 l 0.7 0.2 l 0.8 0.9 l -2 0.8 l -0.9 0.6 l -0.2 0.9 l 0.6 0.9 l 1 0 l 3.2 -1.6 l 0.7 0 l 1.4 0.7 l 0.6 0.6 l 0.5 0.7 l 0.8 1.8 l 0.7 -1.4 l 0.9 -0.6 l 1.1 -0.2 l 1.3 -0.1 l 1.1 0.3 l 7.5 -4.2 l 11.9 -1.6 l 3.7 -0.4 l 3.1 -1.5 l 1.3 -1 l 0.4 -1.8 l 0.9 -2 l 0.8 -2.6 l 2.7 -4.5 l 2.8 -3.4 l 0.6 -1.1 l 1.3 -1 l 1.5 -0.5 l 3.5 0.4 l 1.3 0.7 l 1.5 1.2 l 1.2 1.3 l 2.8 2 l 1.6 1.5 l 2.9 1.4 l 13.2 3.6 l 1.3 0.3 l 0.7 -0.1 l 0.2 -0.5 l 0.1 -0.5 l 0 -0.7 l 0.2 -0.6 l 0.3 -0.4 l 0.6 -0.3 l 0.9 -0.2 l 1.5 0.5 l 0.3 0.2 l 0.4 0 l 0.3 -0.3 l 0.4 -1.3 l 0.1 -0.7 l 0 -0.6 l -0.1 -0.4 l 0 -0.3 l -0.1 -0.6 l 0 -0.3 l 0 -0.3 l 0 -0.3 l -0.1 -0.4 l -0.2 -0.7 l 0.1 -0.2 l 0.5 -0.2 l 0.4 -0.3 l 0.4 -0.5 l 0.8 -1.6 l 0.2 -0.5 l 0 -0.6 l -0.1 -0.5 l -0.1 -0.6 l -0.2 -0.5 l -0.3 -0.4 l -0.5 -0.2 l -0.6 -0.1 l -1.5 -0.5 l -0.8 -0.4 l -0.7 -0.2 l -1.3 0 l -0.5 -0.2 l -0.5 -0.2 l -0.9 -0.7 l -0.2 -0.4 l -0.2 -0.3 l 0 -0.3 l -0.3 -0.5 l 0 -0.4 l 0 -0.4 l 0 -0.4 l 0.3 -0.9 l 0.3 -0.9 l 0.1 -0.9 l 0 -0.4 l 0.1 -0.4 l 0.4 -0.9 l 0.3 -0.4 l 0.4 -0.4 l 0.3 -0.3 l 0.3 -0.1 l 0.4 0.1 l 0.4 0.1 l 1.7 0.9 l 1 0.3 l 6.4 1.1 l 2.6 1.1 l 2.8 0.7 l 5.8 3.1 l 2.1 0.5 l 0.6 -0.1 l 0.5 0.1 l 0.5 0.4 l 2 2 l 1.8 1.1 l 1.3 1 l 1.2 0.6 l 0.5 0.5 l 0.5 0.7 l 0.1 0.5 l 0.3 0.6 l 0.4 0.7 l -0.1 0.3 l -0.2 0.2 l -0.4 0.1 l -0.2 0.2 l 0 0.2 l 0.2 0.2 l 1.5 -0.1 l 0.3 0 l 0.4 0.1 l 0.4 0.3 l 0.6 0.9 l 0 0.5 l -0.1 0.5 l -0.1 0.3 l 0.1 0.3 l 0.7 1.2 l 0.4 0.3 l 0.7 -0.1 l 0.4 -0.1 l 0.4 -0.1 l 0.8 0.2 l 2.8 0.3 l 0.3 0.1 l 0.4 0.3 l 0.3 0.6 l 0.4 0.5 l 0.7 0.5 l 8.6 3.7 l 1.5 1.3 l 0.8 0.4 l 0.5 0.5 l 0.2 0.5 l 0.1 0.9 l 0 0.6 l 1 0.9 l 0.3 0.9 l 0.5 1.3 l 0.3 0.1 l 0.2 -0.1 l 0.2 -0.2 l 0.2 -0.1 l 0.2 0 l 0.2 0.2 l 0.2 0.3 l 0.1 0.5 l -0.1 0.5 l -0.4 1 l -3.3 4.4 l -2.6 2.3 l -1.4 2.3 l -1.6 0.5 l -0.7 0.5 l -2.5 2.2 l -1.5 1 l -1.2 1 l -1 0.2 l -0.3 -0.2 l -0.1 -0.3 l 0 -0.3 l -0.1 -0.2 l -0.4 -0.2 l -0.5 -0.2 l -0.5 0 l -0.4 0.2 l -1 0.4 l -0.3 0 l -0.3 0 l -0.4 0.1 l -0.2 0.3 l -0.1 0.6 l -0.1 0.4 l -0.1 0.4 l -0.3 0.2 l -0.6 -0.2 l -0.3 -0.3 l -0.1 -0.5 l 0.1 -0.4 l 0.2 -0.4 l 0.1 -0.4 l 0 -0.3 l -0.2 -0.1 l -0.4 0 l -0.5 0.1 l -0.5 0.1 l -0.4 0.1 l -0.4 -0.1 l -0.4 -0.2 l -0.3 -0.3 l -0.1 -0.3 l -0.1 -0.4 l -0.2 -0.3 l -0.2 -0.1 l -0.2 0.2 l 0 0.6 l 0.1 0.4 l 0.3 0.6 l -0.1 0.2 l -0.4 0.1 l -0.3 -0.1 l -0.2 -0.2 l -0.5 0.2 l -0.8 0.7 l -2.3 2.6 l -0.4 1 l -0.2 0.4 l -0.4 0.6 l -0.9 0.7 l -0.6 0.9 l -1.3 0.9 l -0.6 0.2 l -0.4 -0.1 l -0.3 -0.4 l -0.3 -0.3 l -0.3 -0.3 l -0.2 0.1 l -0.3 0.3 l -0.1 0.8 l 0.1 1.4 l -0.2 0.7 l -0.4 0.6 l -0.8 0.3 l -0.6 0.1 l -2.3 -0.3 l -0.4 0.2 l -0.2 0.5 l 0 1.1 l 0.2 0.5 l 0.2 0.4 l 0.2 0.4 l 0 0.4 l 0 0.5 l -0.1 0.6 l -0.3 0.5 l -0.9 0.7 l -0.7 0.4 l -0.7 0.2 l -0.6 0 l -1 -0.2 l -0.4 0.1 l -0.2 0.3 l -0.1 0.4 l 0.4 1 l 0.2 1.1 l 0.1 1.6 l -0.7 2.3 l -1.6 2.7 l -3.8 4.6 l -1.5 1.3 l -1.6 1.1 l -0.8 0.4 l -1.3 1.5 l -2 0.9 l -0.7 0.7 l -0.8 1 l -1 1.8 l -0.9 1.1 l -2.8 2.7 l -0.5 0.7 l -0.5 1.3 l -1.1 2.2 l -1.7 1.4 l -0.8 0.1 l -0.3 0.3 l -0.5 1 l -0.2 0.8 l -0.2 0.8 l -2 3.6 l -0.2 1 l 0 0.7 l 0.1 2.3 l -0.1 0.5 l -0.3 0.6 l -1.2 1.9 l -1 1 l -11.9 4.9 l -0.7 1.2 l 0.5 2.8 l 1 1 l 1.5 0.2 l 1.2 0.1 l 0.3 0.8 l 0 2.1 l -0.8 7.8 l -1 2.2 l -0.7 0.7 l -0.7 0.2 l -0.6 0 l -0.6 0.3 l -0.4 0.7 l -2 4.6 l -0.4 1.3 l 0.1 0.9 l 0.1 0.7 l 1.5 3.5 l -0.9 0.8 l -0.2 0.9 l -0.3 1.6 l -0.9 0.5 l -1.2 0.1 l -1.3 0.4 l -0.7 0.9 l -1.4 2.4 l -1.3 1 l -1.8 0.6 l -1.7 1.2 l -6 2.5 l -11.1 7.6 l -1.5 0.1 l -0.8 0.3 l -0.9 0.5 l -2.1 1.8 l -1.1 0.8 l -2.6 1.2 l -0.3 0 l -0.3 0 l -0.1 0 l -0.2 0.1 l -0.2 0.1 l -0.3 -0.1 l -0.3 0 l -0.3 0 l -0.3 0.1 l -0.3 0.4 l -0.3 0.4 l -0.3 0.7 l -0.3 0.2 l -0.2 0.2 l 0 0.2 l 0.8 1.2 l 0.9 2.2 l 0.2 0.8 l -0.1 0.7 l -0.5 0.9 l -0.4 0.6 l -0.2 0.3 l -0.2 1.5 l 0 0.8 l 0.2 0.8 l 0.5 0.8 l 0 1.4 l 0.2 0.8 l 2.5 3.2 l 0.7 0.7 l 1.4 1.1 l 0.5 0.6 l 0.4 0.8 l 0.1 0.8 l 0.1 0.9 l 1 2.9 l 0.2 0.2 l 0.3 0.1 l 0.2 0 l 0.1 -0.1 l 0.2 0 l 0.1 0.3 l -0.1 0.5 l -0.4 0.9 l -0.1 0.7 l 0 0.7 l -0.3 1.9 l 0 0.8 l 0.1 0.3 l 0.1 0.2 l 0.1 0 l 0.2 -0.1 l 0.2 0.1 l 0.5 0.1 l 0.3 0.8 l 0.7 1.3 l 0.1 0.7 l 0.2 0.2 l 0.2 0.1 l 0.3 0.1 l 0.1 0.1 l 0 0.4 l 0.1 0.2 l 0.2 0 l 0.3 0 l 0.1 0.2 l -0.1 0.3 l -0.2 0.2 l 0.1 0.2 l 0.1 0.1 l 0.4 0.1 l 0.3 0 l 0.3 0 l 0.3 0.1 l 0.3 -0.1 l 0.1 0.2 l 0.3 1 l 0.1 0.3 l 0 0.3 l 0.2 0.7 l 0.1 0.4 l -0.1 0.5 l -0.5 1.3 l 0 0.2 l 0.4 0.6 l 0.2 0.5 l -0.2 0.7 l -0.9 0.6 l -3.4 0.5 l -32.6 0.2 l -10.5 2.3 l -2.3 10.9 l -19.9 2.7 l -2.8 -1.2 l -3.2 -1.5 l -1.6 -0.4 l -12.9 1.7 l -5.9 -0.4 l -12.1 -4.7 l -25 -10.4 l -6.1 -1 l -15.4 -4.4 l -11.8 -1.1 l -1.9 -0.1 l -0.1 -2.6 l 0.9 -6.8 l 3.8 -13.8 l 0.8 -11 l 0.8 -3.3 l 0.1 0 l 4.3 -6.5 l 3.1 -4.7 l 1.4 -3.4 l 0.5 -3.5 l -0.4 -15.5 l -0.4 -3.7 l -1 -3.6 l -7.1 -15.4 l -2.3 -5.5 l -0.4 -2 l 0 -1.9 l 3 -28.4 l 0.7 -3 l 8.1 -15.8 l 1.8 -2.6 l 2.7 -1.2 l 5.9 -1 l 28.4 -6 l 2.5 -1.2 l 2.4 -2.1 l 12.3 -13.2 l 18.2 -19.6 l 9.5 -10.1 l 5.8 -5.6 l 2.9 -2.2 Z" />
    <text x="367.9" y="207.6" class="lbl">نينوى</text>
    <text x="367.9" y="233.6" class="cnt" id="cnt-17">0</text>

    <!-- محافظة الأنبار (Id: 36) -->
    <path class="prov" id="gov-36" data-id="36" data-name="الأنبار" d="M 274 296.6 l 1.9 0.1 l 11.8 1.1 l 15.4 4.4 l 6.1 1 l 25 10.4 l 12.1 4.7 l 5.9 0.4 l 12.9 -1.7 l 1.6 0.4 l 3.2 1.5 l 2.8 1.2 l 19.9 -2.7 l 0.7 1.6 l 0.1 24.3 l 3.6 16.1 l 17.8 14.6 l 3.9 2.2 l 3 0.4 l 10.9 -6.2 l 1.7 9.5 l 0.4 6.9 l 0.7 3.3 l 2.4 3.3 l 1.4 5.9 l 0.9 5.9 l 4.8 11.7 l 6.2 8.3 l 14.7 14.8 l 12.5 11 l 4.9 1.8 l 9.8 1.7 l 11.2 4.5 l 8.3 2.7 l 15.3 -0.3 l 2.8 0.8 l 3.1 2.9 l 1.5 1.6 l 1.7 3.1 l 2.8 7.2 l 2 3.4 l 0.9 1 l -3 2.4 l 3.4 1.1 l 3.1 2.1 l 6.7 0.4 l 2.7 6.1 l 0.3 -0.1 l 0.1 0.5 l 0 0.6 l -0.8 2.1 l -2.9 3.1 l -1.1 2.1 l -0.4 2.1 l 0 2.3 l 0.5 2.3 l 0.9 1.8 l 1.1 1.1 l 2.4 1.5 l 1.1 1.2 l -2.8 3.8 l -1.6 1.7 l -1.9 0.5 l -2.1 -0.6 l -5.8 -3.4 l -2.3 -0.7 l -2.2 -0.3 l -8.7 -0.1 l -8 -2.1 l -4.2 -0.6 l -3.1 0.4 l 0.5 2.3 l 1.2 1.6 l 4.5 1.1 l 8.9 4.5 l 2.8 2.8 l 2.2 6.5 l 1.6 8.1 l 1.1 2.9 l 2.5 2.9 l 4 2.8 l -1 10.3 l -15.7 -4.8 l -10.5 0 l -7.7 1 l -7.2 3.5 l -17.1 15.2 l -2.5 1.6 l -1 0.3 l -1.9 0.2 l -11.2 1.6 l -4.3 1.7 l -4.9 2.5 l 0.7 3.3 l 2.2 3.3 l 21.5 21.9 l 15.1 11.3 l 4.4 3.8 l 9.6 9.2 l -0.1 2.1 l -0.5 3.2 l -1.6 2 l -1.6 1.5 l -8.5 4.7 l -2.3 1.9 l -1.2 0.7 l -1.5 0.6 l -5.8 0.9 l -1.1 0.4 l -2.7 1.8 l -0.7 0.2 l -1.9 0.2 l -1.5 0.7 l -1.7 1.3 l -2.6 2.9 l -14.3 21.1 l -1.3 2.3 l -0.1 3.5 l -0.5 3 l -1.3 3.9 l -9.7 20.9 l -0.9 2.6 l -0.2 1.8 l 0 1.4 l 0.1 0.9 l 0.4 0.8 l 0.1 1.6 l -0.4 2.3 l -3.6 9.5 l -0.3 1.3 l -0.7 5.2 l -0.6 2.3 l -0.6 1.5 l -5.2 7.2 l -3.1 5.4 l -0.7 1.6 l -0.3 1.1 l -1.1 9.4 l -1.2 3.7 l -2.7 6.6 l -5.9 11 l -2.4 5.7 l -0.7 1.1 l -1.8 -1.5 l -8.6 -7.6 l -8.7 -7.5 l -8.6 -7.6 l -7.8 -6.7 l -7.7 -6.7 l -7.7 -6.7 l -7.7 -6.7 l -6.1 -5.2 l -8.1 -4.9 l -8 -4.8 l -8.1 -4.7 l -8 -4.8 l -8 -4.8 l -8 -4.8 l -8 -4.7 l -8 -4.8 l -8 -4.8 l -8 -4.8 l -8 -4.8 l -8.1 -4.8 l -8 -4.8 l -8 -4.8 l -8 -4.8 l -8 -4.8 l -8 -4.8 l -9.4 -5.6 l -5.1 -3 l -4.9 -1.9 l -31.2 -6.1 l -7.3 -1.2 l -18.1 -3.1 l -18.1 -3.1 l -18 -3.1 l -18.1 -3.1 l -0.2 0 l -0.3 0.1 l -0.3 0.1 l -0.2 0.1 l 0 -0.8 l 10.9 -9.4 l 2.4 -3.4 l -1.9 -7.3 l -1.4 -3.3 l -1.9 -1.1 l -17.3 4.8 l -0.9 -0.6 l -0.7 -1.6 l -4.4 -15.5 l -0.1 -0.2 l -0.1 -0.2 l 0.1 0 l 0.1 -0.1 l 7 -2.2 l -6.1 -22.7 l -4.3 -15.9 l -4.2 -15.5 l -3.1 -11.5 l -3.8 -14 l -4.3 -15.6 l 10.1 -6.1 l 10.1 -6.1 l 10.1 -6 l 10.1 -6.1 l 10.1 -6.1 l 10.1 -6.1 l 10.1 -6 l 10.1 -6.1 l 10.1 -6.1 l 10.1 -6.1 l 10.1 -6.1 l 10.1 -6.1 l 6.6 -4 l 3.5 -2.1 l 10.1 -6.1 l 10.1 -6.2 l 10.1 -6.1 l 13.4 -8.1 l 22.5 -6 l 2.6 -1.8 l 2.1 -2.9 l 3.3 -7.3 l 15.7 -30.5 l 0.8 -2.7 l 0.2 -2.9 l -0.8 -19.5 l -0.5 -18.4 Z" />
    <text x="300.0" y="551.2" class="lbl">الأنبار</text>
    <text x="300.0" y="582.2" class="cnt" id="cnt-36">0</text>

    <!-- محافظة أربيل (Id: 32) -->
    <path class="prov" id="gov-32" data-id="32" data-name="أربيل" d="M 536.7 52.6 l 1.8 0.2 l 8.8 3.7 l 2 1.4 l 1.5 1.5 l 1.1 2 l 0.8 2.6 l 0.4 2.5 l 0.1 1.5 l -0.1 1.1 l -0.7 1.3 l -0.9 0.4 l -1.1 0.2 l -1.2 0.7 l -1.5 2 l -0.8 2.3 l 0 2.5 l 0.7 2.3 l 3.6 8.4 l 0.6 1.2 l 0.8 0.7 l 3.8 0.9 l 1.2 -0.1 l 0.8 -0.8 l 0.9 -1.9 l 1.4 -2.5 l 0.3 -1.8 l 0.8 -1.2 l 7.7 -2.6 l 2.4 -1.3 l 2.3 -1.8 l 2.2 -2.8 l 3.3 -3.1 l 3.5 -2.6 l 3 -1.4 l 1.7 -0.1 l 9.6 1.4 l 1.8 0.9 l 1.1 2 l -1.2 3.3 l 0 1.1 l 0.7 2 l 0.5 0.8 l 0.7 0.3 l 0.7 0.2 l 0.6 0.5 l 0.4 0.7 l 0.5 1.8 l 0.4 0.5 l 0.8 0.2 l 1.8 -0.5 l 0.9 -0.1 l 0.6 0.4 l 1.1 1.1 l 2 1.1 l 0.6 1 l -0.2 1.2 l -1 1.3 l -0.5 3 l 0.5 2.1 l 0.9 1.8 l 0.4 2.6 l -0.5 2.7 l -1.2 2.1 l -3.3 4 l -1 2.8 l 0.8 2 l 1.8 1.2 l 2.4 0.5 l 2.8 -0.1 l 1.3 0.2 l 1.2 1 l 0.8 1 l 0.9 0.7 l 1.1 0.3 l 1.2 0.1 l 1.5 0.8 l 1.4 1.8 l 2.2 4.1 l 1 2.5 l -0.2 2.1 l -1.8 4.1 l -0.9 3.9 l -0.1 2.4 l -0.3 0.2 l -1.1 0.5 l -0.4 0.3 l -0.2 1.8 l 1.3 1.7 l 0.3 0.3 l -0.3 1.1 l -0.5 1.1 l -1.3 1.9 l -1 0.7 l -1.3 0.5 l -3.2 -0.2 l -3.9 -1 l -1.8 0 l -2 0.5 l -4.8 2.4 l -4 1 l -4.1 0.7 l -2.7 -0.8 l -1.5 -0.2 l -1.9 0.6 l -2.8 2.2 l -1.7 2 l -1 1.5 l -3.1 2.7 l 0 2.4 l 0.5 1.3 l 5.3 8.1 l 0.9 -1.1 l 0.6 -0.4 l 0.9 0 l 0.9 0.8 l 4.6 5.6 l 0.5 0.8 l 0.3 1 l -0.9 0.9 l -2.1 1 l -0.7 0.6 l -0.5 0.9 l -0.5 0.7 l -0.7 0.8 l -2 1.5 l 0.4 1.5 l 0.5 1 l 9.2 6.6 l 2.1 0.9 l 1.1 0.7 l 0.8 0.7 l 6.7 8.1 l 2.9 2.7 l 2.3 1.6 l 6.2 3.1 l 0.6 0.7 l 0.1 0.4 l 0 0.3 l 0 0.2 l -0.2 0.3 l -0.2 0.7 l -0.1 0.3 l -0.6 0.4 l -0.7 0.3 l -0.9 0.1 l -2.1 0 l -0.9 -0.3 l -0.5 -0.3 l -0.2 -0.2 l -0.2 -0.2 l -0.2 -0.1 l -0.4 -0.5 l -0.3 -0.2 l -0.4 0 l -1 0.1 l -0.3 -0.1 l -0.6 -0.2 l -0.3 0 l -0.7 0.1 l -0.3 0.2 l -0.1 0.3 l 1 1.8 l 0.1 0.3 l -0.5 0.7 l -1.4 0.5 l -0.9 0.9 l -0.2 0.1 l -0.3 -0.2 l -0.2 -0.6 l 0 -1.7 l -0.2 -0.3 l -0.3 -0.2 l -0.3 -0.1 l -0.3 0 l -0.4 0.3 l -0.3 0.4 l -0.1 0.3 l -0.1 0.8 l -0.1 0.4 l -0.3 0.2 l -0.4 0 l -0.7 -0.6 l -0.4 -0.5 l -0.4 -0.5 l -0.4 -0.1 l -0.5 -0.1 l -0.8 0.3 l -0.5 0.3 l -0.5 0.2 l -0.5 0 l -0.5 -0.5 l -0.5 -0.7 l -0.5 -0.2 l -0.7 0 l -2.2 0.7 l -0.5 0.1 l -0.5 -0.1 l -0.3 -0.5 l 0 -0.3 l 0 -0.3 l 0 -0.3 l -0.2 -0.2 l -0.3 -0.2 l -0.3 0 l -1.1 0.6 l -0.3 0 l -0.4 -0.3 l -0.2 -0.4 l -0.4 -0.2 l -0.3 0 l -1.7 0.7 l -0.5 -0.9 l 0 -1.1 l -0.3 -0.4 l -0.3 -0.1 l -1 0.5 l -0.4 0.3 l -0.3 0.4 l -0.3 0.9 l -0.3 0.5 l -0.8 0.6 l -0.5 0.6 l -0.4 0.5 l -0.5 0.5 l -0.3 -0.1 l -1 -0.6 l -0.4 0.1 l -0.3 0.3 l -0.1 0.3 l 0.1 0.4 l 0.1 0.4 l 0.1 0.3 l -0.2 0.6 l -0.3 0 l -0.4 -0.2 l -0.5 -0.9 l -0.4 -0.4 l -0.7 -0.2 l -0.5 0.2 l -0.8 0.4 l -0.4 0.1 l -0.3 -0.2 l -0.3 -0.3 l -2 -0.6 l -1.9 1.1 l -0.8 0 l -1.2 -0.2 l -0.6 0.1 l -0.5 0.4 l -0.4 0.4 l -0.5 0.3 l -1.7 0.7 l -0.3 0.2 l -0.5 1 l -0.3 0.1 l -0.3 -0.1 l -0.4 -0.2 l -1.4 -0.2 l -0.6 -0.2 l -1.1 -0.6 l -0.3 0 l -0.5 0.8 l -0.5 0.4 l -1.3 0.7 l -0.9 0.3 l -0.8 0 l -0.5 -0.1 l -1.7 -0.9 l -2 -0.4 l -5 -0.9 l -1.6 0.3 l -2.1 0.8 l -1.3 3.6 l -0.8 1.6 l -0.8 0.6 l -2 0.3 l -3.4 0.2 l -9.6 -7 l -2.1 -0.7 l -1.4 0.2 l -0.9 2.5 l -6.6 7.2 l -5.6 4.7 l -0.6 1 l 0.1 0.7 l 0.6 0.5 l 2 2.3 l 0.5 1 l 0.4 1.1 l 0 1.2 l -0.8 1 l -1.2 1.1 l -1.4 1.8 l -0.6 1.3 l -0.5 2.8 l -1 3.3 l -0.9 1.2 l -0.9 0.4 l -2 0.2 l -3 1.8 l -3 0.3 l -2 -0.1 l -1.3 0.6 l -0.9 1.2 l -1 3.2 l -0.8 1.4 l -1.5 0.8 l -1.8 0.3 l -3.9 0.2 l -1.4 0.4 l -1.8 1.6 l -0.9 0.2 l -1 0 l -1.9 -0.5 l -0.9 -0.5 l -4.1 -2.6 l 0.7 -0.2 l 0.3 -0.1 l 0.2 -0.3 l 0.1 -0.6 l 0.1 -1.4 l 0.4 -1.5 l 0.1 -0.7 l 0 -1.1 l -0.4 -8.7 l -0.3 -1.7 l -0.7 -1.3 l -0.6 -0.6 l -0.4 -0.3 l -0.5 -0.1 l -0.4 -0.2 l -0.2 -0.3 l -0.1 -0.4 l 0.2 -0.7 l 0.2 -0.9 l -0.4 -1.4 l -0.4 -1.1 l -0.5 -0.7 l -0.4 -0.5 l -0.2 -0.3 l -0.1 -0.4 l 0.3 -0.7 l 0.2 -0.5 l 0.6 -3.1 l -1.5 -3.5 l -0.1 -0.7 l -0.1 -0.9 l 0.4 -1.3 l 2 -4.6 l 0.4 -0.7 l 0.6 -0.3 l 0.6 0 l 0.7 -0.2 l 0.7 -0.7 l 1 -2.2 l 0.8 -7.8 l 0 -2.1 l -0.3 -0.8 l -1.2 -0.1 l -1.5 -0.2 l -1 -1 l -0.5 -2.8 l 0.7 -1.2 l 11.9 -4.9 l 1 -1 l 1.2 -1.9 l 0.3 -0.6 l 0.1 -0.5 l -0.1 -2.3 l 0 -0.7 l 0.2 -1 l 2 -3.6 l 0.2 -0.8 l 0.2 -0.8 l 0.5 -1 l 0.3 -0.3 l 0.8 -0.1 l 1.7 -1.4 l 1.1 -2.2 l 0.5 -1.3 l 0.5 -0.7 l 2.8 -2.7 l 0.9 -1.1 l 1 -1.8 l 0.8 -1 l 0.7 -0.7 l 2 -0.9 l 1.3 -1.5 l 0.8 -0.4 l 1.6 -1.1 l 1.5 -1.3 l 3.8 -4.6 l 1.6 -2.7 l 0.7 -2.3 l -0.1 -1.6 l -0.2 -1.1 l -0.4 -1 l 0.1 -0.4 l 0.2 -0.3 l 0.4 -0.1 l 1 0.2 l 0.6 0 l 0.7 -0.2 l 0.7 -0.4 l 0.9 -0.7 l 0.3 -0.5 l 0.1 -0.6 l 0 -0.5 l 0 -0.4 l -0.2 -0.4 l -0.2 -0.4 l -0.2 -0.5 l 0 -1.1 l 0.2 -0.5 l 0.4 -0.2 l 2.3 0.3 l 0.6 -0.1 l 0.8 -0.3 l 0.4 -0.6 l 0.2 -0.7 l -0.1 -1.4 l 0.1 -0.8 l 0.3 -0.3 l 0.2 -0.1 l 0.3 0.3 l 0.3 0.3 l 0.3 0.4 l 0.4 0.1 l 0.6 -0.2 l 1.3 -0.9 l 0.6 -0.9 l 0.9 -0.7 l 0.4 -0.6 l 0.2 -0.4 l 0.4 -1 l 2.3 -2.6 l 0.8 -0.7 l 0.5 -0.2 l 0.2 0.2 l 0.3 0.1 l 0.4 -0.1 l 0.1 -0.2 l -0.3 -0.6 l -0.1 -0.4 l 0 -0.6 l 0.2 -0.2 l 0.2 0.1 l 0.2 0.3 l 0.1 0.4 l 0.1 0.3 l 0.3 0.3 l 0.4 0.2 l 0.4 0.1 l 0.4 -0.1 l 0.5 -0.1 l 0.5 -0.1 l 0.4 0 l 0.2 0.1 l 0 0.3 l -0.1 0.4 l -0.2 0.4 l -0.1 0.4 l 0.1 0.5 l 0.3 0.3 l 0.6 0.2 l 0.3 -0.2 l 0.1 -0.4 l 0.1 -0.4 l 0.1 -0.6 l 0.2 -0.3 l 0.4 -0.1 l 0.3 0 l 0.3 0 l 1 -0.4 l 0.4 -0.2 l 0.5 0 l 0.5 0.2 l 0.4 0.2 l 0.1 0.2 l 0 0.3 l 0.1 0.3 l 0.3 0.2 l 1 -0.2 l 1.2 -1 l 1.5 -1 l 2.5 -2.2 l 0.7 -0.5 l 1.6 -0.5 l 1.4 -2.3 l 2.6 -2.3 l 3.3 -4.4 l 0.4 -1 l 0.1 -0.5 l -0.1 -0.5 l -0.2 -0.3 l -0.2 -0.2 l -0.2 0 l -0.2 0.1 l -0.2 0.2 l -0.2 0.1 l -0.3 -0.1 l -0.5 -1.3 l -0.3 -0.9 l -1 -0.9 l 0 -0.6 l -0.1 -0.9 l -0.2 -0.5 l -0.5 -0.5 l -0.8 -0.4 l -1.5 -1.3 l -8.6 -3.7 l -0.7 -0.5 l -0.4 -0.5 l -0.3 -0.6 l -0.4 -0.3 l -0.3 -0.1 l -2.8 -0.3 l -0.8 -0.2 l -0.4 0.1 l -0.4 0.1 l -0.7 0.1 l -0.4 -0.3 l -0.7 -1.2 l -0.1 -0.3 l 0.1 -0.3 l 0.1 -0.5 l 0 -0.5 l -0.6 -0.9 l -0.4 -0.3 l -0.4 -0.1 l -0.3 0 l -1.5 0.1 l -0.2 -0.2 l 0 -0.2 l 0.2 -0.2 l 0.4 -0.1 l 0.2 -0.2 l 0.1 -0.3 l -0.4 -0.7 l -0.3 -0.6 l -0.1 -0.5 l -0.5 -0.7 l -0.5 -0.5 l -1.2 -0.6 l -1.3 -1 l -1.8 -1.1 l -2 -2 l -0.5 -0.4 l -0.5 -0.1 l -0.6 0.1 l -2.1 -0.5 l -5.8 -3.1 l 1.8 -2.1 l 1.3 -0.6 l 0.7 -0.2 l 0.5 -0.4 l 0.3 -0.6 l 0.4 -1.2 l 0.3 -0.7 l 0.6 -0.5 l 1.6 -0.9 l 3.4 -1.4 l 0.4 -0.2 l 0 -0.3 l -0.2 -0.2 l -0.1 -0.4 l 0.4 -0.2 l 0.7 -0.3 l 1.7 -0.8 l 0.7 -0.5 l 0.5 -0.5 l 0.4 -0.6 l 1.4 -1.9 l 0.5 -0.5 l 1.9 -1 l 1.1 -0.5 l 0.5 -0.3 l 0.2 -0.4 l -0.4 -0.8 l 0 -0.4 l 0.3 -0.7 l 1.1 -1.4 l 0.7 -0.7 l 1 -0.8 l 1 -0.5 l 0.1 -0.3 l 0 -0.4 l -0.2 -1.3 l -0.2 -0.2 l -0.2 -0.1 l -0.5 0 l -0.4 -0.1 l -0.2 -0.2 l -0.2 -0.3 l -0.1 -0.7 l -0.1 -0.7 l 0 -0.4 l 0 -0.5 l 0.3 -0.7 l 0.8 -1.7 l 0 -0.4 l -0.1 -0.3 l -0.3 -0.1 l -0.2 -0.2 l -0.2 -0.1 l -0.2 -0.1 l -0.1 -0.1 l -0.1 -0.2 l -0.2 -0.5 l -0.2 -0.2 l -0.3 -0.1 l -0.3 -0.6 l 0.4 -1.6 Z" />
    <text x="540.4" y="182.4" class="lbl">أربيل</text>
    <text x="540.4" y="205.4" class="cnt" id="cnt-32">0</text>

    <!-- محافظة السليمانية (Id: 34) -->
    <path class="prov" id="gov-34" data-id="34" data-name="السليمانية" d="M 622.6 143.7 l 1.5 1.2 l 1.2 1.3 l 0 1.6 l 0.6 0.9 l 0.8 0.8 l 0.7 1.1 l 0.5 1.5 l 0.1 1.1 l 0.4 1 l 1 1.2 l 2.5 1.2 l 2.7 -0.2 l 5.1 -2.1 l 2.3 0.2 l 1.6 2 l 1 2.9 l 0.4 2.6 l 0.2 4.9 l 0.7 2 l 1.7 2.2 l -2.2 1.4 l 0.5 1.4 l 1.7 1.3 l 1.3 1.3 l 0.5 2.2 l -0.3 5.2 l 0.5 2.4 l 2.8 3.7 l 1.2 2.3 l -0.4 2.2 l -1.1 1.8 l -1.1 2.3 l -0.6 2.4 l 0.6 1.8 l 0.1 0 l 1.6 1.7 l 1.9 0.3 l 2 -0.7 l 1.9 -1.3 l 1.6 -0.5 l 3.1 -1.5 l 2.4 0 l 2 0.7 l 3.5 1.3 l 3.4 3.2 l 1.2 0.7 l 2.4 0.5 l 2.8 2.5 l 4.2 6 l 2.3 5.8 l 1.1 1.5 l 1.7 0.5 l 3.4 -1.1 l 1.1 0.2 l 1.4 1 l 1.9 -0.1 l 1.8 -0.9 l 2.2 -1.9 l 0.9 0.1 l 1 0.3 l 0.9 0.1 l 3 -1 l 5.8 0.2 l 1.8 -0.6 l 1.8 -1 l 1.4 -0.6 l 1.5 0.1 l 2.9 1.1 l 0.6 0.1 l 0.5 0.4 l 0.4 2.3 l 0.4 0.7 l 0.6 0.7 l 0.7 0.6 l 1.9 0.8 l 1.9 -0.1 l 3.9 -0.8 l 1.7 -0.7 l 1.6 -1.1 l 1.6 -0.8 l 2 0.2 l 1.5 1.1 l 0.7 1.5 l -0.2 1.8 l -1.1 1.8 l -1.4 1.3 l -2.8 1.8 l -1.2 1.8 l -1.5 1.4 l -1.9 0.2 l -3.5 -0.2 l -4.6 2.5 l -1.9 0.4 l -6.4 -0.2 l -1.9 0.7 l -1.1 1.2 l -0.8 1.8 l -0.3 2 l 0 1.9 l 0.9 4.3 l -0.3 1.5 l -2.7 -0.8 l -0.5 0 l -0.4 0.1 l 0.8 2.3 l 1 2.1 l 0.4 0.5 l 0.1 0.4 l -0.1 0.5 l -0.4 0.4 l -0.7 0.6 l -0.5 0.7 l -0.2 0.9 l 0 1.1 l 1.2 3.2 l 5.9 9.4 l 5 4.5 l 2.2 2.6 l 0.7 3.3 l -0.2 0.4 l -0.5 1.1 l -1.1 1.4 l -0.9 1.4 l 0.3 1.8 l 1.3 0.9 l 3.5 -0.1 l 1.4 1.2 l -0.4 2.9 l -1.9 3.4 l -1.3 3.2 l 1.9 2.2 l -0.7 1.3 l -1 0.6 l -1.1 0.2 l -2.3 0.8 l -1.7 -0.5 l -0.9 0.1 l -2.5 1.5 l -1.3 1.3 l -1.4 0.4 l -2.8 -1.2 l -1.2 0.1 l -0.9 -0.4 l -1.9 -1.3 l -1.4 -0.5 l -0.6 0.3 l -1.3 2.1 l -0.1 0.5 l 0.3 1.4 l -0.2 0.5 l -0.5 0.3 l -1.3 0.1 l -0.6 0.2 l -1 1 l -0.4 1.3 l -0.1 1.5 l 0.3 1.5 l 0.8 2.9 l -0.2 2.1 l -0.8 2 l -0.7 2.7 l -1.4 1.9 l -2.4 -0.9 l -1.1 -0.5 l -0.6 -1.3 l -0.9 -10.2 l 0.2 -0.8 l 0.2 -0.2 l 0.2 0.1 l 0.7 -0.1 l 0.4 0.1 l 0.4 0.1 l 0.4 0.1 l 0.4 0 l 0.4 -0.1 l 0.4 -0.2 l 0.3 -0.1 l -1 -1.6 l -6.3 -6.7 l -0.5 -0.8 l -0.4 -0.4 l -0.7 -0.7 l -0.6 -0.3 l -0.6 0 l -0.5 0.3 l -0.8 0.9 l -0.2 0.6 l 0 0.7 l -0.4 0.6 l -0.5 0.7 l -1 1.2 l -0.4 0.7 l -0.4 0.9 l -0.3 0.4 l -0.7 0.4 l -0.2 0.1 l -0.3 0.3 l -0.2 0.1 l -0.2 -0.1 l 0 -0.2 l 0 -0.3 l -0.1 -0.3 l -0.2 -0.2 l -0.3 0.1 l -0.3 0.4 l -0.6 1 l -0.2 0.6 l 0.1 0.9 l 0.2 0.3 l 0.2 0 l 0.3 -0.1 l 0.2 -0.1 l 0.2 0.2 l -0.1 0.4 l -0.4 0.8 l -0.8 0.5 l -0.4 0.5 l -0.3 1.5 l -0.9 0.8 l 0.2 0.7 l 0.3 0.1 l 0.9 0.1 l 0.3 0 l 0.3 0.2 l 0.1 0.2 l 0 0.2 l 0 0.3 l 0 0.3 l -0.2 0.7 l -0.5 1 l -2.1 3.4 l -0.7 1 l -2.4 2.2 l -0.3 0 l -0.3 -0.1 l -0.3 0.1 l -0.2 0.2 l -0.1 0.6 l -0.1 0.5 l -0.4 0.7 l -0.9 1 l -0.7 1.7 l -0.3 1.3 l -0.8 2.1 l -0.1 0.4 l -0.2 0.4 l -0.6 0.2 l -0.4 0.4 l -0.4 0.6 l -1.2 3.1 l -1 1.8 l -0.4 0.8 l -0.2 0.6 l 0 0.4 l -0.1 0.4 l 0 0.4 l 0 0.4 l 0.1 0.3 l 0.1 0.3 l -0.1 0.3 l -0.2 0.8 l -0.2 0.6 l -1.1 1.8 l -0.3 1 l 0 0.4 l -0.1 0.2 l -0.4 0.6 l -0.7 0.6 l -1.7 0.9 l -0.9 0.4 l -0.8 0.2 l -0.6 0 l -0.9 0.2 l -0.3 0 l -0.7 0 l -1.2 1 l -10 12 l -3 1.8 l -0.2 -1.7 l -0.2 -0.5 l -0.2 -0.4 l -0.4 0 l -0.3 0 l -0.3 -0.1 l -0.7 -0.2 l -0.3 -0.2 l -0.2 -0.5 l 0 -0.5 l 0.6 -1.2 l 0.3 -0.7 l 0.1 -0.7 l 0.1 -0.6 l -0.1 -0.5 l -0.6 -1.7 l -0.1 -0.7 l 0 -0.6 l 0.1 -0.5 l 0.3 -0.5 l 1.2 -1.4 l 0.4 -0.6 l 0.2 -0.5 l 0 -0.4 l -1 -2.9 l -0.6 -2.5 l 0 -0.8 l -0.1 -0.5 l 0.1 -0.5 l 0 -0.7 l -0.4 -2.5 l -0.3 -3.9 l -0.3 -1.1 l -0.7 -1.1 l -0.7 -0.9 l -1.3 -1.1 l -0.9 -0.5 l -1.1 -0.3 l -2 -0.3 l -1 0.1 l -0.8 0.3 l -2.2 1.2 l -0.5 0.2 l -0.6 -0.1 l -0.6 -0.5 l -0.9 -1.2 l -1.9 -1.9 l -4.8 -3.2 l -0.3 -7.9 l 0.3 -1.5 l 0.1 -0.5 l -0.1 -0.4 l -0.2 -0.5 l -1.1 -1.4 l -7.9 -5.5 l -3.4 -0.6 l -10 -0.4 l -1.6 0.5 l -2 -0.5 l -1.5 -0.7 l -9.2 -9.8 l 4 -3.4 l 7.1 -2.2 l 1 -1 l 0.3 -0.9 l -0.7 -1.6 l -0.1 -0.8 l 0 -0.9 l 0.4 -1.1 l 0.9 -1.4 l 1.1 -0.7 l 0.9 -0.5 l 0.7 -0.2 l 0.3 -0.5 l 0.2 -0.7 l 0.3 -1.5 l 1 -2.4 l 0.4 -1.7 l -0.4 -1.7 l -0.6 -1.9 l -0.2 -1.6 l 0.7 -2.2 l 3.3 -4.5 l 0.9 -1.9 l 0.5 -1.6 l -0.1 -1.3 l -1.7 -2.4 l -2 -2.2 l -0.6 -1.1 l -0.2 -1.1 l 0.3 -3.3 l 0.3 -4 l 0.3 -1.3 l 0.2 -2.9 l 0.4 -1.2 l 1.6 -2.7 l -0.1 -1.9 l -0.8 -2.3 l -4.2 -3.7 l -2.1 -2.9 l -2.3 -2.5 l -5.1 -11.2 l 1.7 -0.7 l 0.3 0 l 0.4 0.2 l 0.2 0.4 l 0.4 0.3 l 0.3 0 l 1.1 -0.6 l 0.3 0 l 0.3 0.2 l 0.2 0.2 l 0 0.3 l 0 0.3 l 0 0.3 l 0.3 0.5 l 0.5 0.1 l 0.5 -0.1 l 2.2 -0.7 l 0.7 0 l 0.5 0.2 l 0.5 0.7 l 0.5 0.5 l 0.5 0 l 0.5 -0.2 l 0.5 -0.3 l 0.8 -0.3 l 0.5 0.1 l 0.4 0.1 l 0.4 0.5 l 0.4 0.5 l 0.7 0.6 l 0.4 0 l 0.3 -0.2 l 0.1 -0.4 l 0.1 -0.8 l 0.1 -0.3 l 0.3 -0.4 l 0.4 -0.3 l 0.4 0 l 0.3 0.1 l 0.3 0.2 l 0.2 0.3 l 0 1.7 l 0.2 0.6 l 0.3 0.2 l 0.2 -0.1 l 0.9 -0.9 l 1.4 -0.5 l 0.5 -0.7 l -0.1 -0.3 l -1 -1.8 l 0.1 -0.3 l 0.3 -0.2 l 0.7 -0.1 l 0.3 0 l 0.6 0.2 l 0.3 0.1 l 1 -0.1 l 0.4 0 l 0.3 0.2 l 0.4 0.5 l 0.2 0.1 l 0.2 0.2 l 0.2 0.2 l 0.5 0.3 l 0.9 0.3 l 2.1 0 l 0.9 -0.1 l 0.7 -0.3 l 0.6 -0.4 l 0.1 -0.3 l 0.2 -0.7 l 0.2 -0.3 l 0 -0.2 l 0 -0.3 l -0.1 -0.4 l -0.6 -0.7 l -6.2 -3.1 l -2.3 -1.6 l -2.9 -2.7 l -6.7 -8.1 l -0.8 -0.7 l -1.1 -0.7 l -2.1 -0.9 l -9.2 -6.6 l -0.5 -1 l -0.4 -1.5 l 2 -1.5 l 0.7 -0.8 l 0.5 -0.7 l 0.5 -0.9 l 0.7 -0.6 l 2.1 -1 l 0.9 -0.9 l -0.3 -1 l -0.5 -0.8 l -4.6 -5.6 l -0.9 -0.8 l -0.9 0 l -0.6 0.4 l -0.9 1.1 l -5.3 -8.1 l -0.5 -1.3 l 0 -2.4 l 3.1 -2.7 l 1 -1.5 l 1.7 -2 l 2.8 -2.2 l 1.9 -0.6 l 1.5 0.2 l 2.7 0.8 l 4.1 -0.7 l 4 -1 l 4.8 -2.4 l 2 -0.5 l 1.8 0 l 3.9 1 l 3.2 0.2 l 1.3 -0.5 l 1 -0.7 l 1.3 -1.9 l 0.5 -1.1 l 0.3 -1.1 Z" />
    <text x="650.8" y="259.2" class="lbl">السليمانية</text>
    <text x="650.8" y="282.2" class="cnt" id="cnt-34">0</text>

    <!-- محافظة كركوك (Id: 16) -->
    <path class="prov" id="gov-16" data-id="16" data-name="كركوك" d="M 471.8 263.1 l 4.1 2.6 l 0.9 0.5 l 1.9 0.5 l 1 0 l 0.9 -0.2 l 1.8 -1.6 l 1.4 -0.4 l 3.9 -0.2 l 1.8 -0.3 l 1.5 -0.8 l 0.8 -1.4 l 1 -3.2 l 0.9 -1.2 l 1.3 -0.6 l 2 0.1 l 3 -0.3 l 3 -1.8 l 2 -0.2 l 0.9 -0.4 l 0.9 -1.2 l 1 -3.3 l 0.5 -2.8 l 0.6 -1.3 l 1.4 -1.8 l 1.2 -1.1 l 0.8 -1 l 0 -1.2 l -0.4 -1.1 l -0.5 -1 l -2 -2.3 l -0.6 -0.5 l -0.1 -0.7 l 0.6 -1 l 5.6 -4.7 l 6.6 -7.2 l 0.9 -2.5 l 1.4 -0.2 l 2.1 0.7 l 9.6 7 l 3.4 -0.2 l 2 -0.3 l 0.8 -0.6 l 0.8 -1.6 l 1.3 -3.6 l 2.1 -0.8 l 1.6 -0.3 l 5 0.9 l 2 0.4 l 1.7 0.9 l 0.5 0.1 l 0.8 0 l 0.9 -0.3 l 1.3 -0.7 l 0.5 -0.4 l 0.5 -0.8 l 0.3 0 l 1.1 0.6 l 0.6 0.2 l 1.4 0.2 l 0.4 0.2 l 0.3 0.1 l 0.3 -0.1 l 0.5 -1 l 0.3 -0.2 l 1.7 -0.7 l 0.5 -0.3 l 0.4 -0.4 l 0.5 -0.4 l 0.6 -0.1 l 1.2 0.2 l 0.8 0 l 1.9 -1.1 l 2 0.6 l 0.3 0.3 l 0.3 0.2 l 0.4 -0.1 l 0.8 -0.4 l 0.5 -0.2 l 0.7 0.2 l 0.4 0.4 l 0.5 0.9 l 0.4 0.2 l 0.3 0 l 0.2 -0.6 l -0.1 -0.3 l -0.1 -0.4 l -0.1 -0.4 l 0.1 -0.3 l 0.3 -0.3 l 0.4 -0.1 l 1 0.6 l 0.3 0.1 l 0.5 -0.5 l 0.4 -0.5 l 0.5 -0.6 l 0.8 -0.6 l 0.3 -0.5 l 0.3 -0.9 l 0.3 -0.4 l 0.4 -0.3 l 1 -0.5 l 0.3 0.1 l 0.3 0.4 l 0 1.1 l 0.5 0.9 l 5.1 11.2 l 2.3 2.5 l 2.1 2.9 l 4.2 3.7 l 0.8 2.3 l 0.1 1.9 l -1.6 2.7 l -0.4 1.2 l -0.2 2.9 l -0.3 1.3 l -0.3 4 l -0.3 3.3 l 0.2 1.1 l 0.6 1.1 l 2 2.2 l 1.7 2.4 l 0.1 1.3 l -0.5 1.6 l -0.9 1.9 l -3.3 4.5 l -0.7 2.2 l 0.2 1.6 l 0.6 1.9 l 0.4 1.7 l -0.4 1.7 l -1 2.4 l -0.3 1.5 l -0.2 0.7 l -0.3 0.5 l -0.7 0.2 l -0.9 0.5 l -1.1 0.7 l -0.9 1.4 l -0.4 1.1 l 0 0.9 l 0.1 0.8 l 0.7 1.6 l -0.3 0.9 l -1 1 l -7.1 2.2 l -4 3.4 l -1.2 0.1 l -0.5 0.2 l -0.7 0.5 l -0.9 1.1 l -0.7 1.2 l -0.5 2 l 0.1 1.5 l 1.8 4.4 l 0 1.7 l -0.9 1.3 l -2.5 1.9 l -1.4 0.7 l -1.1 0.7 l -0.7 0.7 l -2 2.9 l -2 2 l -1.4 2.2 l -0.1 0.9 l -0.1 0.3 l 0 0.2 l 0 0.3 l 0 0.3 l -0.3 0.6 l -0.4 0.8 l 0 0.3 l -0.1 0.2 l 0.1 0.4 l 0 0.4 l -0.5 0.6 l -0.1 0.3 l 0 0.3 l -0.1 0.4 l -0.4 0.4 l -1 0.6 l -1.5 2 l -0.3 1.1 l -0.3 0.6 l -0.5 0.7 l -1.1 1 l -0.3 0.5 l -0.1 0.4 l 0 1.1 l -0.1 0.6 l -0.3 1.2 l 0.1 0.4 l 0.4 0.8 l 0 0.2 l -0.2 0.5 l 0 0.3 l 0.2 0.2 l 0.3 0.1 l 1 0.1 l 0 0.3 l -0.4 0.6 l -2 2.5 l -1.4 0 l -0.9 -0.3 l -7 -5.3 l -7.6 -7.7 l -5.5 -3.4 l -7.8 -3.5 l -6.4 -2.4 l -6 -3.6 l -18.2 -11 l -7.1 -3.2 l -2.1 -1.5 l -0.8 -1.3 l -1.7 -1.2 l -2.4 -1.1 l -1.2 -1.8 l -6 -6.5 l -0.7 -0.5 l -0.9 -1.3 l -0.8 -1.4 l -0.4 -1 l 0.4 -1.2 l 0.9 -0.6 l 1.1 -0.3 l 0.7 -0.6 l 0.4 -2.1 l -1.9 -0.9 l -4.7 -0.8 l 0.6 -0.7 l 0.3 -0.7 l 0.3 -1.6 l -0.1 -0.5 l -0.3 -0.4 l -0.2 -0.4 l 0.3 -0.7 l 0.3 -0.2 l 0.3 -0.1 l 0.3 -0.2 l 0.1 -0.3 l -0.6 -1.4 l -1.3 -0.9 l -2.6 -1 l -1 -0.9 l -2.3 -2.6 l -0.4 -0.9 l -0.2 -0.2 l -0.5 -0.4 l -0.4 -0.6 l -0.2 -1 l 0.1 -1.1 l 0.3 -0.7 l 0 -0.6 l -0.4 -1.1 l 0.6 -1.6 l 1.4 0.4 l 0.4 0.3 l 0.2 0.4 l 0.1 0.4 l 0.1 0.3 l 0.4 0.6 l 0 0.5 l 0 0.5 l 0.6 0.8 l 0.5 0.2 l 0.8 0 l 1.5 -2.6 l 1.7 -0.9 Z" />
    <text x="545.8" y="266.5" class="lbl">كركوك</text>
    <text x="545.8" y="287.5" class="cnt" id="cnt-16">0</text>

    <!-- محافظة صلاح الدين (Id: 15) -->
    <path class="prov" id="gov-15" data-id="15" data-name="صلاح الدين" d="M 469.6 233.3 l -0.6 3.1 l -0.2 0.5 l -0.3 0.7 l 0.1 0.4 l 0.2 0.3 l 0.4 0.5 l 0.5 0.7 l 0.4 1.1 l 0.4 1.4 l -0.2 0.9 l -0.2 0.7 l 0.1 0.4 l 0.2 0.3 l 0.4 0.2 l 0.5 0.1 l 0.4 0.3 l 0.6 0.6 l 0.7 1.3 l 0.3 1.7 l 0.4 8.7 l 0 1.1 l -0.1 0.7 l -0.4 1.5 l -0.1 1.4 l -0.1 0.6 l -0.2 0.3 l -0.3 0.1 l -0.7 0.2 l -1.7 0.9 l -1.5 2.6 l -0.8 0 l -0.5 -0.2 l -0.6 -0.8 l 0 -0.5 l 0 -0.5 l -0.4 -0.6 l -0.1 -0.3 l -0.1 -0.4 l -0.2 -0.4 l -0.4 -0.3 l -1.4 -0.4 l -0.6 1.6 l 0.4 1.1 l 0 0.6 l -0.3 0.7 l -0.1 1.1 l 0.2 1 l 0.4 0.6 l 0.5 0.4 l 0.2 0.2 l 0.4 0.9 l 2.3 2.6 l 1 0.9 l 2.6 1 l 1.3 0.9 l 0.6 1.4 l -0.1 0.3 l -0.3 0.2 l -0.3 0.1 l -0.3 0.2 l -0.3 0.7 l 0.2 0.4 l 0.3 0.4 l 0.1 0.5 l -0.3 1.6 l -0.3 0.7 l -0.6 0.7 l 4.7 0.8 l 1.9 0.9 l -0.4 2.1 l -0.7 0.6 l -1.1 0.3 l -0.9 0.6 l -0.4 1.2 l 0.4 1 l 0.8 1.4 l 0.9 1.3 l 0.7 0.5 l 6 6.5 l 1.2 1.8 l 2.4 1.1 l 1.7 1.2 l 0.8 1.3 l 2.1 1.5 l 7.1 3.2 l 18.2 11 l 6 3.6 l 6.4 2.4 l 7.8 3.5 l 5.5 3.4 l 7.6 7.7 l 7 5.3 l 0.9 0.3 l 1.4 0 l 2 -2.5 l 0.4 -0.6 l 0 -0.3 l -1 -0.1 l -0.3 -0.1 l -0.2 -0.2 l 0 -0.3 l 0.2 -0.5 l 0 -0.2 l -0.4 -0.8 l -0.1 -0.4 l 0.3 -1.2 l 0.1 -0.6 l 0 -1.1 l 0.1 -0.4 l 0.3 -0.5 l 1.1 -1 l 0.5 -0.7 l 0.3 -0.6 l 0.3 -1.1 l 1.5 -2 l 1 -0.6 l 0.4 -0.4 l 0.1 -0.4 l 0 -0.3 l 0.1 -0.3 l 0.5 -0.6 l 0 -0.4 l -0.1 -0.4 l 0.1 -0.2 l 0 -0.3 l 0.4 -0.8 l 0.3 -0.6 l 0 -0.3 l 0 -0.3 l 0 -0.2 l 0.1 -0.3 l 0.1 -0.9 l 1.4 -2.2 l 2 -2 l 2 -2.9 l 0.7 -0.7 l 1.1 -0.7 l 1.4 -0.7 l 2.5 -1.9 l 0.9 -1.3 l 0 -1.7 l -1.8 -4.4 l -0.1 -1.5 l 0.5 -2 l 0.7 -1.2 l 0.9 -1.1 l 0.7 -0.5 l 0.5 -0.2 l 1.2 -0.1 l 9.2 9.8 l 1.5 0.7 l 2 0.5 l 1.6 -0.5 l 10 0.4 l 3.4 0.6 l 7.9 5.5 l 1.1 1.4 l 0.2 0.5 l 0.1 0.4 l -0.1 0.5 l -0.3 1.5 l 0.3 7.9 l -4.4 4 l -3 1.5 l -2.3 1 l -1.1 0.8 l -0.6 0.9 l -0.1 0.7 l 0.1 0.8 l 0.1 0.9 l -0.4 1.2 l -1.2 2.1 l -1.8 1.8 l -1.3 1 l -1.1 0.5 l -2.6 0.8 l -1.8 1.1 l -0.9 0.8 l -0.4 0.7 l 0 0.6 l 0.1 0.7 l 0.4 0.7 l 0.5 0.7 l 0.3 1.3 l -0.2 1.6 l -1.4 3.1 l -1.2 1.6 l -1.3 1.2 l -1.5 1 l -1.5 1.4 l -1 1.2 l -0.6 1.1 l -0.5 1.3 l -0.3 0.1 l -0.4 -0.3 l -3.4 -3.1 l -1 -0.6 l -0.8 -0.4 l -1.4 -0.3 l -1.8 -0.8 l -0.8 -0.4 l -0.4 0.2 l -1 1.4 l -0.2 0.6 l -0.1 0.4 l -0.1 1 l 1.4 3.6 l 0 0.6 l -0.3 0.9 l -1.1 1 l -0.1 0.3 l 0.1 0.1 l 0.3 0 l 0.3 0.1 l 0.4 0.4 l 0.4 0.9 l -0.1 0.4 l -0.3 0.3 l -0.9 0.2 l -0.4 0.1 l -0.4 0.1 l -0.4 0.3 l -0.4 0.7 l 0 0.4 l 0 0.2 l 0.2 -0.1 l 0.2 -0.2 l 0.2 -0.1 l 0.3 0.2 l 0 0.3 l -0.2 0.3 l -0.4 0.5 l 0 0.3 l 0.2 0.2 l 0.3 0.1 l 0.3 -0.1 l 0.5 -0.3 l 0.3 0 l 0.3 0.2 l -0.1 0.3 l -0.1 0.4 l -0.4 1 l -0.2 0.3 l -0.6 0.7 l 0.1 0.4 l 0.2 0.5 l 0.3 1.1 l 0 0.9 l -0.6 2.1 l -0.9 2 l -0.7 1.1 l 0 0.5 l 0.2 0.6 l 0.5 0.7 l 0.9 1 l 0.7 0.6 l 0.6 0.3 l 1.1 1.3 l -1.3 0.9 l 0.3 2.2 l -0.1 0.4 l -0.3 0.3 l -0.5 0.1 l -0.7 0.5 l -0.1 0.6 l 0 2 l -0.2 0.5 l -0.3 0.1 l -0.2 -0.2 l -0.5 -0.6 l -0.3 -0.1 l -0.4 0.2 l -0.4 0.3 l -0.3 0.2 l -0.3 0.1 l -1 0 l -0.9 0.3 l -0.3 0.3 l -1.9 2.8 l -0.4 0.8 l -0.2 0.9 l -0.2 0.3 l -0.3 0.2 l -0.3 0 l -0.2 -0.2 l 0 -0.1 l 0.2 -0.6 l 0 -0.3 l -0.2 -0.2 l -0.5 0.1 l -0.3 0.4 l -0.4 0.6 l -0.2 0.7 l -0.4 0.3 l -0.4 0.2 l -1.1 -0.1 l -0.9 0.2 l -0.3 0.2 l 0 0.3 l 0.2 0.3 l 0.2 0.4 l 0.1 2.6 l -0.1 0.3 l -0.2 0.2 l -1.1 0 l -0.7 0.2 l -0.4 0.3 l -0.2 0.4 l 0.1 0.4 l 0.7 1.2 l 0.1 0.4 l 0 0.4 l -0.2 0.7 l -0.4 0.4 l -1.9 1.4 l -0.2 0.3 l 0.5 0.8 l 0.1 0.5 l -0.6 1.8 l -0.3 1.4 l -1 1.5 l 0 0.5 l 0 0.9 l 0.3 0.3 l 0.4 0.1 l 0.7 -0.1 l 0.7 -0.2 l 2.5 -0.3 l 2.4 0.4 l 0.6 0.2 l 0.8 0.4 l 4.2 3.8 l 1.1 1.4 l 0.7 1.7 l 0.3 2.1 l -0.1 2.1 l -0.5 1.9 l -3.1 4.9 l -1.7 4.7 l -0.2 1 l 0 1 l 0.2 1 l 0.5 0.9 l 0.6 0.8 l 1.8 1.9 l 0.2 0.4 l 0 0.5 l -1.2 2 l -0.4 0.8 l -1.4 6 l 1.1 2.5 l -0.3 2.7 l -0.8 2.8 l -3.6 3.3 l -1.5 1.1 l -2.2 2 l -1.3 1.7 l -4.9 7 l -6.7 -0.4 l -3.1 -2.1 l -3.4 -1.1 l 3 -2.4 l -0.9 -1 l -2 -3.4 l -2.8 -7.2 l -1.7 -3.1 l -1.5 -1.6 l -3.1 -2.9 l -2.8 -0.8 l -15.3 0.3 l -8.3 -2.7 l -11.2 -4.5 l -9.8 -1.7 l -4.9 -1.8 l -12.5 -11 l -14.7 -14.8 l -6.2 -8.3 l -4.8 -11.7 l -0.9 -5.9 l -1.4 -5.9 l -2.4 -3.3 l -0.7 -3.3 l -0.4 -6.9 l -1.7 -9.5 l -10.9 6.2 l -3 -0.4 l -3.9 -2.2 l -17.8 -14.6 l -3.6 -16.1 l -0.1 -24.3 l -0.7 -1.6 l 2.3 -10.9 l 10.5 -2.3 l 32.6 -0.2 l 3.4 -0.5 l 0.9 -0.6 l 0.2 -0.7 l -0.2 -0.5 l -0.4 -0.6 l 0 -0.2 l 0.5 -1.3 l 0.1 -0.5 l -0.1 -0.4 l -0.2 -0.7 l 0 -0.3 l -0.1 -0.3 l -0.3 -1 l -0.1 -0.2 l -0.3 0.1 l -0.3 -0.1 l -0.3 0 l -0.3 0 l -0.4 -0.1 l -0.1 -0.1 l -0.1 -0.2 l 0.2 -0.2 l 0.1 -0.3 l -0.1 -0.2 l -0.3 0 l -0.2 0 l -0.1 -0.2 l 0 -0.4 l -0.1 -0.1 l -0.3 -0.1 l -0.2 -0.1 l -0.2 -0.2 l -0.1 -0.7 l -0.7 -1.3 l -0.3 -0.8 l -0.5 -0.1 l -0.2 -0.1 l -0.2 0.1 l -0.1 0 l -0.1 -0.2 l -0.1 -0.3 l 0 -0.8 l 0.3 -1.9 l 0 -0.7 l 0.1 -0.7 l 0.4 -0.9 l 0.1 -0.5 l -0.1 -0.3 l -0.2 0 l -0.1 0.1 l -0.2 0 l -0.3 -0.1 l -0.2 -0.2 l -1 -2.9 l -0.1 -0.9 l -0.1 -0.8 l -0.4 -0.8 l -0.5 -0.6 l -1.4 -1.1 l -0.7 -0.7 l -2.5 -3.2 l -0.2 -0.8 l 0 -1.4 l -0.5 -0.8 l -0.2 -0.8 l 0 -0.8 l 0.2 -1.5 l 0.2 -0.3 l 0.4 -0.6 l 0.5 -0.9 l 0.1 -0.7 l -0.2 -0.8 l -0.9 -2.2 l -0.8 -1.2 l 0 -0.2 l 0.2 -0.2 l 0.3 -0.2 l 0.3 -0.7 l 0.3 -0.4 l 0.3 -0.4 l 0.3 -0.1 l 0.3 0 l 0.3 0 l 0.3 0.1 l 0.2 -0.1 l 0.2 -0.1 l 0.1 0 l 0.3 0 l 0.3 0 l 2.6 -1.2 l 1.1 -0.8 l 2.1 -1.8 l 0.9 -0.5 l 0.8 -0.3 l 1.5 -0.1 l 11.1 -7.6 l 6 -2.5 l 1.7 -1.2 l 1.8 -0.6 l 1.3 -1 l 1.4 -2.4 l 0.7 -0.9 l 1.3 -0.4 l 1.2 -0.1 l 0.9 -0.5 l 0.3 -1.6 l 0.2 -0.9 l 0.9 -0.8 Z" />
    <text x="500.2" y="368.6" class="lbl">صلاح الدين</text>
    <text x="500.2" y="392.6" class="cnt" id="cnt-15">0</text>

    <!-- محافظة ديالى (Id: 14) -->
    <path class="prov" id="gov-14" data-id="14" data-name="ديالى" d="M 694.5 325.2 l -1.6 -0.9 l -2.2 0.1 l -0.6 2.1 l 0.2 2.8 l -0.4 2.8 l -2.6 1.7 l -2.6 0.3 l -1.1 0.5 l -0.9 1.3 l -0.3 1.3 l 0.2 2.2 l -0.3 1.3 l -2.5 2.9 l -0.7 1.8 l 1.3 1.6 l 0.8 0.4 l 0.8 0.6 l 0.7 0.9 l 0.3 0.9 l 0.3 1.1 l 0.4 0.7 l 0.5 0.6 l 0.4 0.7 l 0.3 2.1 l 0 2.1 l 0.3 1.9 l 1 1.4 l 0.3 0.8 l 0 1.2 l -0.3 1.1 l -0.3 0.7 l -0.6 0.2 l -2 -0.7 l -6.3 -0.5 l -2.8 -0.7 l -3.1 -1.7 l -3.6 -1 l -0.4 3 l 0.8 4.5 l -0.1 3.3 l -0.5 0.9 l -0.5 0.8 l -0.6 0.7 l -0.6 0.6 l -4.8 1 l -0.9 1.5 l 2.8 9.1 l 1.2 2.4 l 1.7 1.3 l 1.8 -1.5 l 2 0 l 1.9 1.2 l 1.4 2.2 l 0.5 2.5 l -0.2 2.7 l -1.2 5.3 l -0.5 1 l -1.2 2.1 l -0.2 1 l 0.4 1.3 l 0.7 0.9 l 0.5 1 l 0 1.2 l -0.9 1.3 l -3.7 3 l -1.3 1.4 l -2.3 2 l -1 2.4 l -0.8 2.8 l -1.4 3.1 l -0.7 0.8 l -0.9 0.6 l -2 0.9 l 1.9 2.7 l 2.1 1.1 l 2.4 0.2 l 2.7 -0.4 l 0.2 0 l 0.2 0.1 l 0.1 0.1 l 8.2 14.9 l 1.2 1.3 l 1.4 1.2 l 1.2 1.3 l 0.7 1.9 l 0.4 2.2 l 0.6 1.9 l 0.9 1.8 l 1.2 1.8 l 1.4 1.4 l 4.3 3.1 l 0.4 0.8 l 0.3 0.8 l -0.1 3.9 l 0.7 0.8 l 1.6 -0.4 l 1.5 -1 l 2.6 -2.6 l 1.7 -0.7 l 4.4 0 l 2 -0.5 l -0.4 3.3 l 1.7 1.7 l 1.9 1.3 l 0.6 2.4 l -1.1 1.7 l -4.3 2.7 l -1.4 1.8 l 1.5 1.4 l 2.7 0.6 l 2.8 -0.3 l 1.7 -1.7 l 0.4 -0.2 l 0.5 -0.1 l 0.5 0.1 l 0.1 0.1 l -1.6 1.7 l -1.4 2.5 l -0.4 0.7 l -1 3.9 l -0.7 0.8 l -1 0.8 l -2.1 1.3 l -1.1 0.5 l -0.8 0.2 l -0.5 0 l -0.6 0.2 l -0.7 0.3 l -4.3 3.2 l -0.9 1.2 l -0.8 0.7 l -1.1 0.7 l -1.4 0.6 l -0.4 0.1 l -0.3 -0.1 l -0.4 -0.2 l -0.4 -0.1 l -0.4 0.2 l -0.5 0.6 l -1 1.5 l -3.2 3.9 l -0.9 1.2 l -0.6 1.2 l -0.4 1.5 l -0.8 2.3 l -1.2 1.8 l -2.4 3 l -2.1 3.1 l -0.6 0.7 l -3.5 3 l -1.5 1.6 l -1.2 1.5 l -1 0.5 l -0.7 0.3 l -5.4 -1.5 l -28.6 -8.3 l -8.9 1 l -3.2 -0.3 l -10.5 -2.5 l -2.7 -0.2 l -1.8 1.5 l -2 2.4 l -2.1 3 l -3.9 3.1 l -1.6 1.6 l -0.9 1.3 l 0.5 1.2 l 0.3 0.5 l 0.5 1.6 l -0.4 0.2 l -1 0.9 l -1 0.4 l -1 -0.1 l -1 -0.3 l -1 -0.5 l -0.8 -0.6 l -0.7 -0.6 l -0.6 -0.8 l -0.5 -1 l -0.8 -2.2 l -0.6 -1 l -0.6 0.4 l -0.7 1.5 l -0.9 2.8 l -0.9 1.6 l -0.4 1 l -0.4 0.7 l -0.4 0.3 l -0.2 0.1 l -2 -0.6 l 0.5 -1.5 l 0 -4.3 l -0.3 -2.3 l -0.7 -2.7 l -1.7 -4.2 l -1.1 -2.3 l 0 -1.3 l 0.2 -4.7 l 0.9 -1.3 l 0.2 -0.2 l 0.6 -0.7 l 0.1 -0.5 l 0 -0.4 l -0.4 -0.8 l -0.2 -0.9 l 0.7 -1.7 l 0 0.9 l -0.3 0.4 l 0.1 0.3 l 0.3 0 l 0.4 -0.3 l 0.3 -0.7 l 0.2 -0.8 l -0.1 -3.3 l -0.1 -3.2 l 0.5 -1.1 l 0 -1.3 l 0.1 -0.3 l 0.1 -0.1 l -0.1 -0.4 l -0.5 -1.5 l -0.2 -1 l -0.2 -1.2 l -0.3 -0.5 l -0.3 -0.3 l -2.9 2.2 l -3.4 -3 l -1.8 -1 l -1 -0.2 l -6.5 -0.3 l -0.5 -0.1 l -0.6 0.8 l -1.2 3.8 l -4.8 1.3 l -0.3 0.1 l -2.7 -6.1 l 4.9 -7 l 1.3 -1.7 l 2.2 -2 l 1.5 -1.1 l 3.6 -3.3 l 0.8 -2.8 l 0.3 -2.7 l -1.1 -2.5 l 1.4 -6 l 0.4 -0.8 l 1.2 -2 l 0 -0.5 l -0.2 -0.4 l -1.8 -1.9 l -0.6 -0.8 l -0.5 -0.9 l -0.2 -1 l 0 -1 l 0.2 -1 l 1.7 -4.7 l 3.1 -4.9 l 0.5 -1.9 l 0.1 -2.1 l -0.3 -2.1 l -0.7 -1.7 l -1.1 -1.4 l -4.2 -3.8 l -0.8 -0.4 l -0.6 -0.2 l -2.4 -0.4 l -2.5 0.3 l -0.7 0.2 l -0.7 0.1 l -0.4 -0.1 l -0.3 -0.3 l 0 -0.9 l 0 -0.5 l 1 -1.5 l 0.3 -1.4 l 0.6 -1.8 l -0.1 -0.5 l -0.5 -0.8 l 0.2 -0.3 l 1.9 -1.4 l 0.4 -0.4 l 0.2 -0.7 l 0 -0.4 l -0.1 -0.4 l -0.7 -1.2 l -0.1 -0.4 l 0.2 -0.4 l 0.4 -0.3 l 0.7 -0.2 l 1.1 0 l 0.2 -0.2 l 0.1 -0.3 l -0.1 -2.6 l -0.2 -0.4 l -0.2 -0.3 l 0 -0.3 l 0.3 -0.2 l 0.9 -0.2 l 1.1 0.1 l 0.4 -0.2 l 0.4 -0.3 l 0.2 -0.7 l 0.4 -0.6 l 0.3 -0.4 l 0.5 -0.1 l 0.2 0.2 l 0 0.3 l -0.2 0.6 l 0 0.1 l 0.2 0.2 l 0.3 0 l 0.3 -0.2 l 0.2 -0.3 l 0.2 -0.9 l 0.4 -0.8 l 1.9 -2.8 l 0.3 -0.3 l 0.9 -0.3 l 1 0 l 0.3 -0.1 l 0.3 -0.2 l 0.4 -0.3 l 0.4 -0.2 l 0.3 0.1 l 0.5 0.6 l 0.2 0.2 l 0.3 -0.1 l 0.2 -0.5 l 0 -2 l 0.1 -0.6 l 0.7 -0.5 l 0.5 -0.1 l 0.3 -0.3 l 0.1 -0.4 l -0.3 -2.2 l 1.3 -0.9 l -1.1 -1.3 l -0.6 -0.3 l -0.7 -0.6 l -0.9 -1 l -0.5 -0.7 l -0.2 -0.6 l 0 -0.5 l 0.7 -1.1 l 0.9 -2 l 0.6 -2.1 l 0 -0.9 l -0.3 -1.1 l -0.2 -0.5 l -0.1 -0.4 l 0.6 -0.7 l 0.2 -0.3 l 0.4 -1 l 0.1 -0.4 l 0.1 -0.3 l -0.3 -0.2 l -0.3 0 l -0.5 0.3 l -0.3 0.1 l -0.3 -0.1 l -0.2 -0.2 l 0 -0.3 l 0.4 -0.5 l 0.2 -0.3 l 0 -0.3 l -0.3 -0.2 l -0.2 0.1 l -0.2 0.2 l -0.2 0.1 l 0 -0.2 l 0 -0.4 l 0.4 -0.7 l 0.4 -0.3 l 0.4 -0.1 l 0.4 -0.1 l 0.9 -0.2 l 0.3 -0.3 l 0.1 -0.4 l -0.4 -0.9 l -0.4 -0.4 l -0.3 -0.1 l -0.3 0 l -0.1 -0.1 l 0.1 -0.3 l 1.1 -1 l 0.3 -0.9 l 0 -0.6 l -1.4 -3.6 l 0.1 -1 l 0.1 -0.4 l 0.2 -0.6 l 1 -1.4 l 0.4 -0.2 l 0.8 0.4 l 1.8 0.8 l 1.4 0.3 l 0.8 0.4 l 1 0.6 l 3.4 3.1 l 0.4 0.3 l 0.3 -0.1 l 0.5 -1.3 l 0.6 -1.1 l 1 -1.2 l 1.5 -1.4 l 1.5 -1 l 1.3 -1.2 l 1.2 -1.6 l 1.4 -3.1 l 0.2 -1.6 l -0.3 -1.3 l -0.5 -0.7 l -0.4 -0.7 l -0.1 -0.7 l 0 -0.6 l 0.4 -0.7 l 0.9 -0.8 l 1.8 -1.1 l 2.6 -0.8 l 1.1 -0.5 l 1.3 -1 l 1.8 -1.8 l 1.2 -2.1 l 0.4 -1.2 l -0.1 -0.9 l -0.1 -0.8 l 0.1 -0.7 l 0.6 -0.9 l 1.1 -0.8 l 2.3 -1 l 3 -1.5 l 4.4 -4 l 4.8 3.2 l 1.9 1.9 l 0.9 1.2 l 0.6 0.5 l 0.6 0.1 l 0.5 -0.2 l 2.2 -1.2 l 0.8 -0.3 l 1 -0.1 l 2 0.3 l 1.1 0.3 l 0.9 0.5 l 1.3 1.1 l 0.7 0.9 l 0.7 1.1 l 0.3 1.1 l 0.3 3.9 l 0.4 2.5 l 0 0.7 l -0.1 0.5 l 0.1 0.5 l 0 0.8 l 0.6 2.5 l 1 2.9 l 0 0.4 l -0.2 0.5 l -0.4 0.6 l -1.2 1.4 l -0.3 0.5 l -0.1 0.5 l 0 0.6 l 0.1 0.7 l 0.6 1.7 l 0.1 0.5 l -0.1 0.6 l -0.1 0.7 l -0.3 0.7 l -0.6 1.2 l 0 0.5 l 0.2 0.5 l 0.3 0.2 l 0.7 0.2 l 0.3 0.1 l 0.3 0 l 0.4 0 l 0.2 0.4 l 0.2 0.5 l 0.2 1.7 l 3 -1.8 l 10 -12 l 1.2 -1 l 0.7 0 l 0.3 0 l 0.9 -0.2 l 0.6 0 l 0.8 -0.2 l 0.9 -0.4 l 1.7 -0.9 l 0.7 -0.6 l 0.4 -0.6 l 0.1 -0.2 l 0 -0.4 l 0.3 -1 l 1.1 -1.8 l 0.2 -0.6 l 0.2 -0.8 l 0.1 -0.3 l -0.1 -0.3 l -0.1 -0.3 l 0 -0.4 l 0 -0.4 l 0.1 -0.4 l 0 -0.4 l 0.2 -0.6 l 0.4 -0.8 l 1 -1.8 l 1.2 -3.1 l 0.4 -0.6 l 0.4 -0.4 l 0.6 -0.2 l 0.2 -0.4 l 0.1 -0.4 l 0.8 -2.1 l 0.3 -1.3 l 0.7 -1.7 l 0.9 -1 l 0.4 -0.7 l 0.1 -0.5 l 0.1 -0.6 l 0.2 -0.2 l 0.3 -0.1 l 0.3 0.1 l 0.3 0 l 2.4 -2.2 l 0.7 -1 l 2.1 -3.4 l 0.5 -1 l 0.2 -0.7 l 0 -0.3 l 0 -0.3 l 0 -0.2 l -0.1 -0.2 l -0.3 -0.2 l -0.3 0 l -0.9 -0.1 l -0.3 -0.1 l -0.2 -0.7 l 0.9 -0.8 l 0.3 -1.5 l 0.4 -0.5 l 0.8 -0.5 l 0.4 -0.8 l 0.1 -0.4 l -0.2 -0.2 l -0.2 0.1 l -0.3 0.1 l -0.2 0 l -0.2 -0.3 l -0.1 -0.9 l 0.2 -0.6 l 0.6 -1 l 0.3 -0.4 l 0.3 -0.1 l 0.2 0.2 l 0.1 0.3 l 0 0.3 l 0 0.2 l 0.2 0.1 l 0.2 -0.1 l 0.3 -0.3 l 0.2 -0.1 l 0.7 -0.4 l 0.3 -0.4 l 0.4 -0.9 l 0.4 -0.7 l 1 -1.2 l 0.5 -0.7 l 0.4 -0.6 l 0 -0.7 l 0.2 -0.6 l 0.8 -0.9 l 0.5 -0.3 l 0.6 0 l 0.6 0.3 l 0.7 0.7 l 0.4 0.4 l 0.5 0.8 l 6.3 6.7 l 1 1.6 l -0.3 0.1 l -0.4 0.2 l -0.4 0.1 l -0.4 0 l -0.4 -0.1 l -0.4 -0.1 l -0.4 -0.1 l -0.7 0.1 l -0.2 -0.1 l -0.2 0.2 l -0.2 0.8 l 0.9 10.2 l 0.6 1.3 Z" />
    <text x="620.3" y="442.5" class="lbl">ديالى</text>
    <text x="620.3" y="466.5" class="cnt" id="cnt-14">0</text>

    <!-- محافظة بغداد (Id: 2) -->
    <path class="prov" id="gov-2" data-id="2" data-name="بغداد" d="M 555.8 493.4 l 4.8 -1.3 l 1.2 -3.8 l 0.6 -0.8 l 0.5 0.1 l 6.5 0.3 l 1 0.2 l 1.8 1 l 3.4 3 l 2.9 -2.2 l 0.3 0.3 l 0.3 0.5 l 0.2 1.2 l 0.2 1 l 0.5 1.5 l 0.1 0.4 l -0.1 0.1 l -0.1 0.3 l 0 1.3 l -0.5 1.1 l 0.1 3.2 l 0.1 3.3 l -0.2 0.8 l -0.3 0.7 l -0.4 0.3 l -0.3 0 l -0.1 -0.3 l 0.3 -0.4 l 0 -0.9 l -0.7 1.7 l 0.2 0.9 l 0.4 0.8 l 0 0.4 l -0.1 0.5 l -0.6 0.7 l -0.2 0.2 l -0.9 1.3 l -0.2 4.7 l -15.1 -0.7 l -2.4 -0.7 l -1.1 -0.2 l -1.2 0.2 l -1.1 -1.2 l -2.4 -1.5 l -1.1 -1.1 l -0.9 -1.8 l -0.5 -2.3 l 0 -2.3 l 0.4 -2.1 l 1.1 -2.1 l 2.9 -3.1 l 0.8 -2.1 l 0 -0.6 l -0.1 -0.5 Z" />
    <text x="565.7" y="500.3" class="lbl">بغداد</text>
    <text x="560.7" y="511.3" class="cnt" id="cnt-2">0</text>

    <!-- محافظة كربلاء (Id: 13) -->
    <path class="prov" id="gov-13" data-id="13" data-name="كربلاء" d="M 502.2 624.9 l -4.4 -3.8 l -15.1 -11.3 l -21.5 -21.9 l -2.2 -3.3 l -0.7 -3.3 l 4.9 -2.5 l 4.3 -1.7 l 11.2 -1.6 l 1.9 -0.2 l 1 -0.3 l 2.5 -1.6 l 17.1 -15.2 l 7.2 -3.5 l 7.7 -1 l 10.5 0 l 15.7 4.8 l 2.5 0.4 l 3.2 0.9 l 0.5 0.1 l 0.4 -0.1 l 1 -0.6 l 0.5 -0.2 l 0.4 0 l 0.5 0.2 l 0.7 0.5 l 2.2 2.3 l 0.4 0.8 l 0 0.7 l 0 1.2 l -0.8 0.9 l -3.2 11.8 l 0.2 4 l 1.5 3.7 l 5.1 7.6 l 0.7 2.1 l -0.9 2.2 l -0.5 1.8 l 0.7 2.2 l 1.9 3.8 l 0.3 1.1 l -1.1 2.8 l -0.1 0.6 l -0.5 1.2 l -0.4 0.6 l -0.8 -0.5 l -1.1 -0.9 l -2.3 0.3 l -8.6 2.6 l -42.5 12.3 Z" />
    <text x="510.8" y="589.8" class="lbl">كربلاء</text>
    <text x="510.8" y="607.8" class="cnt" id="cnt-13">0</text>

    <!-- محافظة بابل (Id: 12) -->
    <path class="prov" id="gov-12" data-id="12" data-name="بابل" d="M 576.5 515.5 l 0 1.3 l 1.1 2.3 l 1.7 4.2 l 0.7 2.7 l 0.3 2.3 l 0 4.3 l -0.5 1.5 l -1.6 0.9 l 0.7 3.2 l 0.3 11 l 0.6 2.7 l 0.6 1.7 l 0.6 0.6 l 0.5 0.4 l 0.5 0.2 l 12.9 0.9 l 0.7 0.1 l 5.8 3.4 l 4.6 1.4 l 3.3 0.4 l 0.8 0.2 l 0.5 0.9 l 3 1.2 l 2.3 1.3 l 1.3 1.1 l 1.3 1.4 l 0.5 1.1 l 3.9 13 l 3.6 8.1 l 1.6 2 l 1.8 1.8 l 1.4 1 l 1.6 0.5 l 5.4 0.2 l 1.2 0 l 0.2 3.4 l 0.2 2.3 l -1.3 -0.1 l -0.8 0.2 l -1.3 0.5 l -4.1 2.5 l -1.1 0.8 l -1.1 1.4 l -0.6 0.6 l -7.9 5.2 l -5.9 2.4 l -4 3.1 l -2.6 2.5 l -0.7 0.4 l -0.5 -0.3 l -1.1 -1 l -0.5 -0.5 l -0.5 0 l -0.7 0.3 l -0.9 0.9 l -0.5 1 l -0.3 0.7 l 0.2 0.5 l 0.3 0.5 l 0.8 0.6 l 0.1 1 l -0.1 0.8 l -0.4 0.6 l -0.4 0.4 l -1.4 0.8 l -0.6 0.5 l -1.7 2.1 l -0.6 0.6 l -0.8 0.4 l -0.9 0.3 l -1 0 l -1.2 -0.4 l -5.1 -3.1 l -2.7 -0.9 l -4.7 -1.5 l -2.7 -1.5 l -2 -1.8 l -2.5 -1.3 l -4.5 3.2 l -0.7 0 l -0.8 0.1 l -0.4 0 l -1.9 1.3 l -3.2 3.1 l -1.4 -1.9 l -0.5 -0.9 l -0.7 -1 l -0.6 -0.7 l -1.7 -2.8 l -0.7 -2 l -0.2 -1.2 l 0.7 -1.1 l 2.2 -1.2 l 0.4 -1.9 l -0.6 -0.5 l -0.6 -1.1 l -1.3 -5.2 l -0.3 -1.1 l -1.9 -3.8 l -0.7 -2.2 l 0.5 -1.8 l 0.9 -2.2 l -0.7 -2.1 l -5.1 -7.6 l -1.5 -3.7 l -0.2 -4 l 3.2 -11.8 l 0.8 -0.9 l 0 -1.2 l 0 -0.7 l -0.4 -0.8 l -2.2 -2.3 l -0.7 -0.5 l -0.5 -0.2 l -0.4 0 l -0.5 0.2 l -1 0.6 l -0.4 0.1 l -0.5 -0.1 l -3.2 -0.9 l -2.5 -0.4 l 1 -10.3 l -4 -2.8 l -2.5 -2.9 l -1.1 -2.9 l -1.6 -8.1 l -2.2 -6.5 l -2.8 -2.8 l -8.9 -4.5 l -4.5 -1.1 l -1.2 -1.6 l -0.5 -2.3 l 3.1 -0.4 l 4.2 0.6 l 8 2.1 l 8.7 0.1 l 2.2 0.3 l 2.3 0.7 l 5.8 3.4 l 2.1 0.6 l 1.9 -0.5 l 1.6 -1.7 l 2.8 -3.8 l 1.2 -0.2 l 1.1 0.2 l 2.4 0.7 l 15.1 0.7 Z" />
    <text x="590.9" y="580.6" class="lbl">بابل</text>
    <text x="590.9" y="597.6" class="cnt" id="cnt-12">0</text>

    <!-- محافظة واسط (Id: 11) -->
    <path class="prov" id="gov-11" data-id="11" data-name="واسط" d="M 709.9 480.6 l 0.3 0.1 l 0.3 0.2 l 0.3 0.2 l 3 3.9 l 1.1 1.9 l 0.7 2 l 0.3 2.3 l 0.1 1.8 l 0.4 1.6 l 3.1 2.9 l 3.6 5.2 l 2.9 2.3 l 1.3 1.3 l 0.8 1.9 l 0 1.1 l -0.5 2.1 l -0.1 0.9 l 0.4 1 l 1.1 0.7 l 0 1 l -0.6 1.4 l -1.3 1.5 l -2.4 2.5 l -2 1.4 l -1.4 0.3 l -1.6 -0.1 l -2 0.2 l -1.8 1 l -0.1 1.3 l 1.3 1.1 l 4 0.5 l 1.7 0.7 l 1.3 1.2 l 0.5 1.5 l -0.6 1.9 l -1.3 1.4 l -1.5 1.2 l -1.2 1.3 l 2 4.4 l 5.3 0.7 l 10.8 -1.3 l 9.7 3.1 l 9.1 4.3 l 2.6 2.6 l 8.5 4.9 l -1.4 2.5 l -0.9 1.1 l -2 1.4 l -0.7 1.1 l -5.9 18 l -0.6 5.2 l 0.1 6.6 l -0.1 1.2 l -0.3 1.1 l -0.3 1.5 l -0.3 0.7 l -1.3 2 l -0.5 1.2 l -0.1 1 l 0.8 0.8 l 1.5 1.3 l 0.4 0.6 l 0.4 0.9 l -0.2 0.9 l -3.8 11.1 l -0.5 1.9 l 0.3 1.6 l 1.6 1.4 l 11.2 4.8 l 1.8 2.7 l 1.1 2 l -2.5 16.2 l -1.9 0.2 l -3.5 -0.8 l -3.3 -1.7 l -3.6 -0.5 l -11.4 0.5 l -23.7 0 l -3.1 1.1 l -0.4 0.4 l -0.4 0.8 l -0.4 0.2 l -0.6 0.1 l -1.5 -0.3 l -0.8 -0.3 l -0.8 -0.1 l -0.8 0.3 l -3.1 2.4 l -0.5 0.1 l -0.4 -0.4 l -0.3 -0.2 l -0.2 -0.1 l -0.2 0.1 l -0.4 0.4 l -0.4 0.2 l -0.4 0.1 l -0.4 -0.4 l -0.5 0 l -5.6 2.3 l -9.1 -0.5 l -4.3 -10 l -0.1 -0.7 l 0.4 -0.5 l 0.6 -0.6 l -0.3 -1.3 l -6.3 -1.9 l -5.7 -2.1 l -1.5 -0.9 l -0.9 -1.4 l -1.1 -2 l -1.6 -2.2 l -9.1 -8.6 l -1.4 -1.6 l -0.5 -1.7 l 0.2 -1.5 l 1.2 -2.9 l 0.2 -1 l -0.3 -0.9 l -2 -0.6 l -1.1 -1.6 l -6.4 -0.8 l -2.3 -1 l -0.6 -1.7 l -5.3 -0.7 l -0.2 -2.3 l -0.2 -3.4 l -1.2 0 l -5.4 -0.2 l -1.6 -0.5 l -1.4 -1 l -1.8 -1.8 l -1.6 -2 l -3.6 -8.1 l -3.9 -13 l -0.5 -1.1 l -1.3 -1.4 l -1.3 -1.1 l -2.3 -1.3 l -3 -1.2 l -0.5 -0.9 l -0.8 -0.2 l -3.3 -0.4 l -4.6 -1.4 l -5.8 -3.4 l -0.7 -0.1 l -12.9 -0.9 l -0.5 -0.2 l -0.5 -0.4 l -0.6 -0.6 l -0.6 -1.7 l -0.6 -2.7 l -0.3 -11 l -0.7 -3.2 l 1.6 -0.9 l 2 0.6 l 0.2 -0.1 l 0.4 -0.3 l 0.4 -0.7 l 0.4 -1 l 0.9 -1.6 l 0.9 -2.8 l 0.7 -1.5 l 0.6 -0.4 l 0.6 1 l 0.8 2.2 l 0.5 1 l 0.6 0.8 l 0.7 0.6 l 0.8 0.6 l 1 0.5 l 1 0.3 l 1 0.1 l 1 -0.4 l 1 -0.9 l 0.4 -0.2 l -0.5 -1.6 l -0.3 -0.5 l -0.5 -1.2 l 0.9 -1.3 l 1.6 -1.6 l 3.9 -3.1 l 2.1 -3 l 2 -2.4 l 1.8 -1.5 l 2.7 0.2 l 10.5 2.5 l 3.2 0.3 l 8.9 -1 l 28.6 8.3 l 5.4 1.5 l 0.7 -0.3 l 1 -0.5 l 1.2 -1.5 l 1.5 -1.6 l 3.5 -3 l 0.6 -0.7 l 2.1 -3.1 l 2.4 -3 l 1.2 -1.8 l 0.8 -2.3 l 0.4 -1.5 l 0.6 -1.2 l 0.9 -1.2 l 3.2 -3.9 l 1 -1.5 l 0.5 -0.6 l 0.4 -0.2 l 0.4 0.1 l 0.4 0.2 l 0.3 0.1 l 0.4 -0.1 l 1.4 -0.6 l 1.1 -0.7 l 0.8 -0.7 l 0.9 -1.2 l 4.3 -3.2 l 0.7 -0.3 l 0.6 -0.2 l 0.5 0 l 0.8 -0.2 l 1.1 -0.5 l 2.1 -1.3 l 1 -0.8 l 0.7 -0.8 l 1 -3.9 l 0.4 -0.7 l 1.4 -2.5 l 1.6 -1.7 Z" />
    <text x="689.6" y="571.1" class="lbl">واسط</text>
    <text x="689.6" y="595.1" class="cnt" id="cnt-11">0</text>

    <!-- محافظة النجف (Id: 9) -->
    <path class="prov" id="gov-9" data-id="9" data-name="النجف" d="M 514.4 875.8 l -4.5 -3.6 l -10.4 -8.5 l -10.5 -8.5 l -10.5 -8.6 l -10.4 -8.5 l -8.1 -6.6 l -8 -6.5 l -8.1 -6.6 l -8 -6.6 l -9.7 -7.9 l -6.9 -6 l 0.7 -1.1 l 2.4 -5.7 l 5.9 -11 l 2.7 -6.6 l 1.2 -3.7 l 1.1 -9.4 l 0.3 -1.1 l 0.7 -1.6 l 3.1 -5.4 l 5.2 -7.2 l 0.6 -1.5 l 0.6 -2.3 l 0.7 -5.2 l 0.3 -1.3 l 3.6 -9.5 l 0.4 -2.3 l -0.1 -1.6 l -0.4 -0.8 l -0.1 -0.9 l 0 -1.4 l 0.2 -1.8 l 0.9 -2.6 l 9.7 -20.9 l 1.3 -3.9 l 0.5 -3 l 0.1 -3.5 l 1.3 -2.3 l 14.3 -21.1 l 2.6 -2.9 l 1.7 -1.3 l 1.5 -0.7 l 1.9 -0.2 l 0.7 -0.2 l 2.7 -1.8 l 1.1 -0.4 l 5.8 -0.9 l 1.5 -0.6 l 1.2 -0.7 l 2.3 -1.9 l 8.5 -4.7 l 1.6 -1.5 l 1.6 -2 l 0.5 -3.2 l 0.1 -2.1 l -9.6 -9.2 l 42.5 -12.3 l 8.6 -2.6 l 2.3 -0.3 l 1.1 0.9 l 0.8 0.5 l 0.4 -0.6 l 0.5 -1.2 l 0.1 -0.6 l 1.1 -2.8 l 1.3 5.2 l 0.6 1.1 l 0.6 0.5 l -0.4 1.9 l -2.2 1.2 l -0.7 1.1 l 0.2 1.2 l 0.7 2 l 1.7 2.8 l 0.6 0.7 l 0.7 1 l 0.5 0.9 l 1.4 1.9 l 3.2 -3.1 l 1.9 -1.3 l 0.4 0 l 0.8 -0.1 l 0.7 0 l 4.5 -3.2 l 2.5 1.3 l 2 1.8 l 2.7 1.5 l 4.7 1.5 l -1.4 4.4 l -0.3 0.4 l -0.4 0.5 l -0.4 0 l -0.6 0.1 l -0.9 0.6 l -0.2 0.6 l 0 0.6 l 0.3 0.7 l 0.4 0.7 l 0.6 0.5 l 0.8 0.7 l 0.6 0.7 l -0.1 0.5 l -0.4 0.3 l -2.7 1 l -3.3 2.2 l -1.8 0.8 l -0.7 1 l -0.8 2.7 l -0.6 3.3 l 3 15.3 l -0.4 3.5 l 0 6.7 l 1.2 8.1 l -1.8 2.5 l -1.5 -0.9 l -2.5 -1 l -2 0.5 l -2 2.3 l -0.5 2.5 l 2 3.6 l 6 7.1 l 1.7 1.1 l 17.5 7.3 l -6.9 37.6 l -2.2 5.1 l -4.3 7.8 l -4.3 3.8 l -3.5 4.2 l -4.5 7 l -0.6 0.4 l -5.5 2.4 l -4.5 3.3 l -1.5 1.4 l -3.7 4.9 l -3.3 6.5 l -16.4 47.5 l -20.1 35.2 l -1.1 2 Z" />
    <text x="520.6" y="730.0" class="lbl">النجف</text>
    <text x="520.6" y="757.0" class="cnt" id="cnt-9">0</text>

    <!-- محافظة القادسية (Id: 10) -->
    <path class="prov" id="gov-10" data-id="10" data-name="القادسية" d="M 693.5 680.5 l -0.7 0.8 l -2 0.7 l -3.9 0 l -16.2 -5.3 l -22.3 -4.4 l -6.5 -0.2 l -1 1.6 l -14.7 3.6 l -2.2 0.2 l 1.1 1.1 l 0.9 0.5 l 1.6 0.6 l 0.6 0.4 l 0.6 0.9 l 0.4 1.3 l 0.6 1 l 2 1 l -0.1 1.6 l -1.4 3.8 l -2.9 5.6 l -5.7 15.7 l -1.9 11.1 l -7.4 -3.9 l -15.6 -11.5 l -17.5 -7.3 l -1.7 -1.1 l -6 -7.1 l -2 -3.6 l 0.5 -2.5 l 2 -2.3 l 2 -0.5 l 2.5 1 l 1.5 0.9 l 1.8 -2.5 l -1.2 -8.1 l 0 -6.7 l 0.4 -3.5 l -3 -15.3 l 0.6 -3.3 l 0.8 -2.7 l 0.7 -1 l 1.8 -0.8 l 3.3 -2.2 l 2.7 -1 l 0.4 -0.3 l 0.1 -0.5 l -0.6 -0.7 l -0.8 -0.7 l -0.6 -0.5 l -0.4 -0.7 l -0.3 -0.7 l 0 -0.6 l 0.2 -0.6 l 0.9 -0.6 l 0.6 -0.1 l 0.4 0 l 0.4 -0.5 l 0.3 -0.4 l 1.4 -4.4 l 2.7 0.9 l 5.1 3.1 l 1.2 0.4 l 1 0 l 0.9 -0.3 l 0.8 -0.4 l 0.6 -0.6 l 1.7 -2.1 l 0.6 -0.5 l 1.4 -0.8 l 0.4 -0.4 l 0.4 -0.6 l 0.1 -0.8 l -0.1 -1 l -0.8 -0.6 l -0.3 -0.5 l -0.2 -0.5 l 0.3 -0.7 l 0.5 -1 l 0.9 -0.9 l 0.7 -0.3 l 0.5 0 l 0.5 0.5 l 1.1 1 l 0.5 0.3 l 0.7 -0.4 l 2.6 -2.5 l 4 -3.1 l 5.9 -2.4 l 7.9 -5.2 l 0.6 -0.6 l 1.1 -1.4 l 1.1 -0.8 l 4.1 -2.5 l 1.3 -0.5 l 0.8 -0.2 l 1.3 0.1 l 5.3 0.7 l 0.6 1.7 l 2.3 1 l 6.4 0.8 l 1.1 1.6 l 2 0.6 l 0.3 0.9 l -0.2 1 l -1.2 2.9 l -0.2 1.5 l 0.5 1.7 l 1.4 1.6 l 9.1 8.6 l 1.6 2.2 l 1.1 2 l 0.9 1.4 l 1.5 0.9 l 5.7 2.1 l 6.3 1.9 l 0.3 1.3 l -0.6 0.6 l -0.4 0.5 l 0.1 0.7 l 4.3 10 l -0.7 2.6 l -0.1 1.5 l 0.1 2.3 l 3.6 11.2 l 2.5 14.2 Z" />
    <text x="630.7" y="646.2" class="lbl">القادسية</text>
    <text x="630.7" y="665.2" class="cnt" id="cnt-10">0</text>

    <!-- محافظة المثنى (Id: 6) -->
    <path class="prov" id="gov-6" data-id="6" data-name="المثنى" d="M 514.4 875.8 l 1.1 -2 l 20.1 -35.2 l 16.4 -47.5 l 3.3 -6.5 l 3.7 -4.9 l 1.5 -1.4 l 4.5 -3.3 l 5.5 -2.4 l 0.6 -0.4 l 4.5 -7 l 3.5 -4.2 l 4.3 -3.8 l 4.3 -7.8 l 2.2 -5.1 l 6.9 -37.6 l 15.6 11.5 l 7.4 3.9 l 1.9 -11.1 l 5.7 -15.7 l 2.9 -5.6 l 1.4 -3.8 l 0.1 -1.6 l -2 -1 l -0.6 -1 l -0.4 -1.3 l -0.6 -0.9 l -0.6 -0.4 l -1.6 -0.6 l -0.9 -0.5 l -1.1 -1.1 l 2.2 -0.2 l 14.7 -3.6 l 1 -1.6 l 6.5 0.2 l 22.3 4.4 l 16.2 5.3 l 3.9 0 l 2 -0.7 l 0.7 -0.8 l 2.9 3.3 l 0.5 1.6 l -0.1 0.5 l 0 1.5 l 0.1 1.5 l -0.1 0.7 l -0.2 0.6 l -0.3 0.1 l -0.4 -0.1 l -0.9 -0.7 l -0.5 -0.3 l -0.5 -0.2 l -0.6 0.4 l -0.4 0.8 l -0.6 2.3 l 0 1 l 0.4 0.6 l 0.4 0.2 l 0.6 0.1 l 0.5 0.7 l 0.5 1.3 l 0.6 3.2 l 0.1 1.5 l -0.3 1.2 l -6.3 7.9 l -1 2 l 0.2 1.5 l 2.6 0.4 l 5 0.2 l -5.2 12.5 l -1.1 3.4 l 0.3 1.2 l 1.7 0.7 l 0.4 0.4 l 1.1 0.8 l 0.7 0.4 l 0.5 0.3 l 0.3 1 l -0.1 1.9 l -0.5 3.3 l -0.6 1.1 l -1.2 0.2 l -1.8 -0.7 l -1.4 0.2 l -0.7 1.4 l -0.4 2.7 l -0.5 2 l -0.4 3.2 l -0.5 2.3 l 1.2 14.9 l 44.9 5.8 l 14.6 5.2 l 8.4 13.9 l 3.8 7.8 l 1 1.4 l 1.2 0.9 l 1.2 0 l 3 -0.7 l 1.5 6.6 l 1.5 9.8 l 0.8 3 l 1.1 2.6 l 9 13.1 l 0.8 2 l 0.6 2.1 l 0.2 2.8 l 0 3 l -7.4 39.9 l -1.2 10.6 l -0.1 13.4 l -0.3 2.7 l -3.4 5.9 l -1.1 2.4 l -0.7 2.7 l -2 21.1 l -0.5 2.6 l 0 0.1 l -2.6 2.9 l -4.1 0.9 l -3.9 0.8 l -1.6 0.4 l -2.4 0.5 l -4 0.8 l -9.7 -0.8 l -6.9 -0.7 l -7 -0.6 l -6.9 -0.6 l -7 -0.7 l -9.3 -0.8 l -9.4 -0.8 l -9.4 -0.9 l -9.3 -0.8 l -9.4 -0.9 l -9.4 -0.8 l -9.3 -0.9 l -9.4 -0.8 l -7.3 -0.7 l -7.2 -0.7 l -7.3 -0.6 l -7.3 -0.7 l -8.3 -0.7 l -0.6 -0.3 l -0.6 -0.2 l -0.6 -0.2 l -0.6 -0.3 l -7 -5.6 l -8.7 -7.1 l -8.7 -7 l -8.7 -7.1 l -8.7 -7 l -10.5 -8.5 l -10.4 -8.5 l -10.5 -8.5 l -6 -4.9 Z" />
    <text x="650.4" y="810.5" class="lbl">المثنى</text>
    <text x="650.4" y="834.5" class="cnt" id="cnt-6">0</text>

    <!-- محافظة ذي قار (Id: 7) -->
    <path class="prov" id="gov-7" data-id="7" data-name="ذي قار" d="M 816 736.3 l 0.8 8.9 l -1.2 22.1 l -2.3 12.1 l -0.6 3 l -0.1 2.4 l 0.5 7.7 l -0.6 3 l -2.7 0.5 l -12.7 -2.3 l -1.7 -0.1 l -29.8 8.2 l -3 0.7 l -1.2 0 l -1.2 -0.9 l -1 -1.4 l -3.8 -7.8 l -8.4 -13.9 l -14.6 -5.2 l -44.9 -5.8 l -1.2 -14.9 l 0.5 -2.3 l 0.4 -3.2 l 0.5 -2 l 0.4 -2.7 l 0.7 -1.4 l 1.4 -0.2 l 1.8 0.7 l 1.2 -0.2 l 0.6 -1.1 l 0.5 -3.3 l 0.1 -1.9 l -0.3 -1 l -0.5 -0.3 l -0.7 -0.4 l -1.1 -0.8 l -0.4 -0.4 l -1.7 -0.7 l -0.3 -1.2 l 1.1 -3.4 l 5.2 -12.5 l -5 -0.2 l -2.6 -0.4 l -0.2 -1.5 l 1 -2 l 6.3 -7.9 l 0.3 -1.2 l -0.1 -1.5 l -0.6 -3.2 l -0.5 -1.3 l -0.5 -0.7 l -0.6 -0.1 l -0.4 -0.2 l -0.4 -0.6 l 0 -1 l 0.6 -2.3 l 0.4 -0.8 l 0.6 -0.4 l 0.5 0.2 l 0.5 0.3 l 0.9 0.7 l 0.4 0.1 l 0.3 -0.1 l 0.2 -0.6 l 0.1 -0.7 l -0.1 -1.5 l 0 -1.5 l 0.1 -0.5 l -0.5 -1.6 l -2.9 -3.3 l -2.5 -14.2 l -3.6 -11.2 l -0.1 -2.3 l 0.1 -1.5 l 0.7 -2.6 l 9.1 0.5 l 5.6 -2.3 l 0.5 0 l 0.4 0.4 l 0.4 -0.1 l 0.4 -0.2 l 0.4 -0.4 l 0.2 -0.1 l 0.2 0.1 l 0.3 0.2 l 0.4 0.4 l 0.5 -0.1 l 3.1 -2.4 l 0.8 -0.3 l 0.8 0.1 l 0.8 0.3 l 1.5 0.3 l 0.6 -0.1 l 0.4 -0.2 l 0.4 -0.8 l 0.4 -0.4 l 3.1 -1.1 l 23.7 0 l 2 2 l 1.2 1.5 l 0.1 0.9 l -1.5 0.4 l -1.5 0.9 l -0.9 1.8 l 2.4 5.1 l 7.1 11.7 l -0.2 2.6 l -0.3 1.4 l 2.1 5.4 l 3.6 4.1 l 2.8 1.6 l 0.6 0.6 l 2.8 4.6 l 1.5 1.5 l 3 2.5 l 0.9 1.2 l 0.7 1.7 l 0.3 1.6 l -0.4 2.2 l -0.5 1.3 l -0.9 2 l -0.1 1.4 l 0 1 l 1.5 4.4 l 8.1 5.1 l 1.1 0.8 l 1.1 1.1 l 1.1 1.5 l 0.6 1.1 l 0.3 1 l 0.1 0.9 l -0.1 1.2 l -0.4 3.8 l 0 1.1 l 0.1 1.1 l 0.2 0.8 l 0.3 0.8 l 0.7 0.8 l 3.9 3.2 l 1.3 1.3 l 3.6 1.8 l 9.6 -0.1 l 16 1.1 Z" />
    <text x="740.8" y="731.9" class="lbl">ذي قار</text>
    <text x="740.8" y="755.9" class="cnt" id="cnt-7">0</text>

    <!-- محافظة ميسان (Id: 8) -->
    <path class="prov" id="gov-8" data-id="8" data-name="ميسان" d="M 768 554 l 0.3 0.2 l 4.2 3.4 l 6 3.7 l 3.8 4.3 l 27.5 24 l 2.9 2.2 l 2.8 1.5 l 2.9 0.6 l 3.2 -0.4 l 1.6 -0.6 l 4.2 -2.3 l 1.3 0.1 l 5.2 1.8 l 1.9 1 l 1.2 1.4 l 1 1.6 l 1.5 2 l 2.5 1.9 l 0.5 0.8 l 0.1 1.2 l -0.3 0.7 l -0.5 0.6 l -0.8 2 l -0.4 0.4 l 0 0.6 l 0.6 1.4 l 0.4 0.7 l 2.8 2.6 l 0.4 0.5 l 0.3 0.7 l 1.7 2.2 l 0.5 0.6 l 0.9 0.5 l 0.5 1.3 l 1.8 1.4 l 0.5 1.4 l -0.2 1.5 l -0.5 1 l -0.5 1 l -0.4 1.2 l -0.1 1.5 l 0 0.8 l 0.7 0.5 l 1.4 0.4 l 1.2 0.8 l 0.7 1.1 l 0.8 0.9 l 1.4 0.2 l 1.8 0.7 l 0.2 0.3 l 1.3 1.9 l 2.1 4.7 l 1.4 1.6 l 3.2 1.6 l 0.9 1.9 l 0.4 1.9 l 3.3 5.9 l 0.6 0.9 l 1.7 1 l 0.7 0.7 l 0.5 1 l 0.4 1.9 l 0.4 0.8 l 1.4 1.6 l 3.6 2.7 l 1.3 1.9 l 0.2 2.3 l -0.5 2.5 l -13.9 37.9 l -0.2 18.3 l -0.1 0 l -12.6 -3.2 l -13.1 -1.3 l -4.1 0.3 l -12.7 3.3 l -3.1 1.5 l -1.9 1.6 l -1.7 2.7 l -1 6.5 l -16 -1.1 l -9.6 0.1 l -3.6 -1.8 l -1.3 -1.3 l -3.9 -3.2 l -0.7 -0.8 l -0.3 -0.8 l -0.2 -0.8 l -0.1 -1.1 l 0 -1.1 l 0.4 -3.8 l 0.1 -1.2 l -0.1 -0.9 l -0.3 -1 l -0.6 -1.1 l -1.1 -1.5 l -1.1 -1.1 l -1.1 -0.8 l -8.1 -5.1 l -1.5 -4.4 l 0 -1 l 0.1 -1.4 l 0.9 -2 l 0.5 -1.3 l 0.4 -2.2 l -0.3 -1.6 l -0.7 -1.7 l -0.9 -1.2 l -3 -2.5 l -1.5 -1.5 l -2.8 -4.6 l -0.6 -0.6 l -2.8 -1.6 l -3.6 -4.1 l -2.1 -5.4 l 0.3 -1.4 l 0.2 -2.6 l -7.1 -11.7 l -2.4 -5.1 l 0.9 -1.8 l 1.5 -0.9 l 1.5 -0.4 l -0.1 -0.9 l -1.2 -1.5 l -2 -2 l 11.4 -0.5 l 3.6 0.5 l 3.3 1.7 l 3.5 0.8 l 1.9 -0.2 l 2.5 -16.2 l -1.1 -2 l -1.8 -2.7 l -11.2 -4.8 l -1.6 -1.4 l -0.3 -1.6 l 0.5 -1.9 l 3.8 -11.1 l 0.2 -0.9 l -0.4 -0.9 l -0.4 -0.6 l -1.5 -1.3 l -0.8 -0.8 l 0.1 -1 l 0.5 -1.2 l 1.3 -2 l 0.3 -0.7 l 0.3 -1.5 l 0.3 -1.1 l 0.1 -1.2 l -0.1 -6.6 l 0.6 -5.2 l 5.9 -18 l 0.7 -1.1 l 2 -1.4 l 0.9 -1.1 l 1.4 -2.5 Z" />
    <text x="810.8" y="653.8" class="lbl">ميسان</text>
    <text x="810.8" y="676.8" class="cnt" id="cnt-8">0</text>

    <!-- محافظة البصرة (Id: 4) -->
    <path class="prov" id="gov-4" data-id="4" data-name="البصرة" d="M 764.4 948.2 l 0 -0.1 l 0.5 -2.6 l 2 -21.1 l 0.7 -2.7 l 1.1 -2.4 l 3.4 -5.9 l 0.3 -2.7 l 0.1 -13.4 l 1.2 -10.6 l 7.4 -39.9 l 0 -3 l -0.2 -2.8 l -0.6 -2.1 l -0.8 -2 l -9 -13.1 l -1.1 -2.6 l -0.8 -3 l -1.5 -9.8 l -1.5 -6.6 l 29.8 -8.2 l 1.7 0.1 l 12.7 2.3 l 2.7 -0.5 l 0.6 -3 l -0.5 -7.7 l 0.1 -2.4 l 0.6 -3 l 2.3 -12.1 l 1.2 -22.1 l -0.8 -8.9 l 1 -6.5 l 1.7 -2.7 l 1.9 -1.6 l 3.1 -1.5 l 12.7 -3.3 l 4.1 -0.3 l 13.1 1.3 l 12.6 3.2 l 0.1 0 l -0.4 25.8 l 30 0 l 1 0.6 l 0.3 1.4 l -0.3 51.2 l 0.1 3.2 l 9.7 1.4 l 1 0.4 l 1 0.6 l 1.5 1.6 l 1.2 2.1 l 0.8 2.3 l 0.7 4.7 l 0.5 1 l 0.7 0.8 l 1 0.4 l 1.1 0.2 l 1.1 -0.1 l 3.3 -0.5 l 1.2 0 l 1.1 0.4 l 0.8 0.7 l 1.9 3.1 l 2.9 3.4 l 3.6 3.3 l 0.6 0.8 l 0.4 1.1 l 0.2 1.2 l -0.2 1.1 l -0.7 0.9 l -0.9 0.8 l -0.7 0.9 l -0.2 1.1 l 0.2 0.8 l 1.1 2.4 l 1.9 2.1 l 0.5 1.1 l 0.2 0.2 l 1.7 5.2 l 0.2 1.4 l 0.8 2 l 0.4 0.7 l 0.6 0.6 l 1.3 1 l 1.3 0.9 l 2.9 0.8 l 0.6 0.3 l 0 0.5 l 2.2 0 l 0.4 1 l -1.1 1.3 l -2.4 0.6 l -10 -1 l -7 -2.4 l -3.2 -2.5 l -3.2 -1 l -5.1 -3.2 l -4 -1.4 l -4.2 -0.8 l -3.9 0 l -3.5 0.9 l -6.3 3.5 l -0.7 -2.8 l -0.3 -3.2 l -0.6 -2.9 l -1.5 -2 l 1.1 3.4 l 0.1 1.3 l -0.2 1.4 l -0.4 1.3 l -0.1 1.1 l 0.7 0.9 l 0 2.5 l -19.8 -10 l -5.3 -1 l -23.6 0 l -5.2 0.7 l -14.7 6.1 l -4.8 3.2 l -3.1 4.5 l -7.8 19.9 l -3.4 6.3 l -0.4 1.5 l -0.4 3.1 l -0.2 1.1 l -1.8 3.9 l -6.8 11.4 l -2.7 7.1 l -1.4 2.1 l -5.8 6.4 l -5.8 9.7 l -13.7 15.4 Z" />
    <text x="837.3" y="810.9" class="lbl">البصرة</text>
    <text x="837.3" y="834.9" class="cnt" id="cnt-4">0</text>
</svg>